<?xml version="1.0" encoding="UTF-8" standalone="no"?>
<svg
   xmlns:dc="http://purl.org/dc/elements/1.1/"
   xmlns:cc="http://creativecommons.org/ns#"
   xmlns:rdf="http://www.w3.org/1999/02/22-rdf-syntax-ns#"
   xmlns:svg="http://www.w3.org/2000/svg"
   xmlns="http://www.w3.org/2000/svg"
   xmlns:xlink="http://www.w3.org/1999/xlink"
   xmlns:sodipodi="http://sodipodi.sourceforge.net/DTD/sodipodi-0.dtd"
   xmlns:inkscape="http://www.inkscape.org/namespaces/inkscape"
   width="210mm"
   height="297mm"
   viewBox="0 0 210 297"
   version="1.1"
   id="svg8"
   inkscape:version="1.0 (6e3e5246a0, 2020-05-07)"
   sodipodi:docname="dessin.svg">
  <defs
     id="defs2">
    <pattern
       inkscape:collect="always"
       patternUnits="userSpaceOnUse"
       width="2"
       height="1"
       patternTransform="translate(0,0) scale(10,10)"
       id="Strips1_1"
       inkscape:stockid="Stripes 1:1">
      <rect
         style="fill:black;stroke:none"
         x="0"
         y="-0.5"
         width="1"
         height="2"
         id="rect1946" />
    </pattern>
    <linearGradient
       inkscape:collect="always"
       id="linearGradient2845">
      <stop
         style="stop-color:#e9afaf;stop-opacity:1;"
         offset="0"
         id="stop2841" />
      <stop
         style="stop-color:#e9afaf;stop-opacity:0;"
         offset="1"
         id="stop2843" />
    </linearGradient>
    <radialGradient
       inkscape:collect="always"
       xlink:href="#linearGradient2845"
       id="radialGradient2847"
       cx="306.00022"
       cy="306"
       fx="306.00022"
       fy="306"
       r="306.00022"
       gradientTransform="matrix(1,0,0,0.43521537,0,172.8241)"
       gradientUnits="userSpaceOnUse" />
  </defs>
  <sodipodi:namedview
     id="base"
     pagecolor="#ffffff"
     bordercolor="#666666"
     borderopacity="1.0"
     inkscape:pageopacity="0.0"
     inkscape:pageshadow="2"
     inkscape:zoom="1.0630046"
     inkscape:cx="451.97844"
     inkscape:cy="246.58352"
     inkscape:document-units="mm"
     inkscape:current-layer="layer1"
     inkscape:document-rotation="0"
     showgrid="true"
     inkscape:window-width="1325"
     inkscape:window-height="709"
     inkscape:window-x="41"
     inkscape:window-y="0"
     inkscape:window-maximized="1">
    <inkscape:grid
       id="grid2949"
       type="xygrid" />
  </sodipodi:namedview>
  <metadata
     id="metadata5">
    <rdf:RDF>
      <cc:Work
         rdf:about="">
        <dc:format>image/svg+xml</dc:format>
        <dc:type
           rdf:resource="http://purl.org/dc/dcmitype/StillImage" />
        <dc:title />
      </cc:Work>
    </rdf:RDF>
  </metadata>
  <g
     inkscape:label="Calque 1"
     inkscape:groupmode="layer"
     id="layer1">
    <rect
       inkscape:export-ydpi="96.580246"
       inkscape:export-xdpi="96.580246"
       style="opacity:0.429934;fill:none;stroke:#c74c4c;stroke-width:1.79887;stroke-linecap:round;stroke-linejoin:round;stroke-miterlimit:4;stroke-dasharray:none;paint-order:fill markers stroke"
       id="rect2865"
       width="95.245827"
       height="55.313873"
       x="52.621296"
       y="4.7663078" />
    <text
       inkscape:export-ydpi="96.580246"
       inkscape:export-xdpi="96.580246"
       xml:space="preserve"
       style="font-style:normal;font-weight:normal;font-size:7.39574px;line-height:1.25;font-family:sans-serif;letter-spacing:0px;word-spacing:0px;fill:#6c5353;fill-opacity:1;stroke:none;stroke-width:0.462234"
       x="59.012741"
       y="12.762936"
       id="text2869"
       transform="scale(0.94022085,1.0635799)"><tspan
         sodipodi:role="line"
         id="tspan2867"
         x="59.012741"
         y="12.762936"
         style="fill:#6c5353;stroke-width:0.462234">class Chat</tspan></text>
    <path
       inkscape:export-ydpi="96.580246"
       inkscape:export-xdpi="96.580246"
       style="fill:none;fill-opacity:0.431373;stroke:#c74d4d;stroke-width:1.265;stroke-linecap:butt;stroke-linejoin:miter;stroke-miterlimit:4;stroke-dasharray:none;stroke-opacity:0.431373"
       d="m 53.223333,34.968414 93.470777,0.159944"
       id="path2871" />
    <text
       inkscape:export-ydpi="96.580246"
       inkscape:export-xdpi="96.580246"
       transform="scale(0.97542466,1.0251945)"
       id="text2869-3"
       y="39.989704"
       x="56.188507"
       style="font-style:normal;font-weight:normal;font-size:6.03778px;line-height:1.25;font-family:sans-serif;letter-spacing:0px;word-spacing:0px;fill:#6c5353;fill-opacity:1;stroke:none;stroke-width:0.377362"
       xml:space="preserve"><tspan
         style="fill:#6c5353;stroke-width:0.377362"
         y="39.989704"
         x="56.188507"
         id="tspan2867-6"
         sodipodi:role="line">attributs</tspan></text>
    <path
       inkscape:export-ydpi="96.580246"
       inkscape:export-xdpi="96.580246"
       id="path2871-7"
       d="m 100.37792,34.901396 -0.17789,24.629854 v 0"
       style="fill:none;fill-opacity:0.431373;stroke:#c74d4d;stroke-width:1.28302;stroke-linecap:butt;stroke-linejoin:miter;stroke-miterlimit:4;stroke-dasharray:none;stroke-opacity:0.431373"
       sodipodi:nodetypes="ccc" />
    <text
       inkscape:export-ydpi="96.580246"
       inkscape:export-xdpi="96.580246"
       xml:space="preserve"
       style="font-style:normal;font-weight:normal;font-size:6.03779px;line-height:1.25;font-family:sans-serif;letter-spacing:0px;word-spacing:0px;fill:#6c5353;fill-opacity:1;stroke:none;stroke-width:0.377362"
       x="105.27946"
       y="39.234985"
       id="text2869-3-5"
       transform="scale(0.97542466,1.0251945)"><tspan
         sodipodi:role="line"
         id="tspan2867-6-3"
         x="105.27946"
         y="39.234985"
         style="fill:#6c5353;stroke-width:0.377362">méthodes</tspan></text>
    <text
       inkscape:export-ydpi="96.580246"
       inkscape:export-xdpi="96.580246"
       xml:space="preserve"
       style="font-style:normal;font-weight:normal;font-size:4.23333px;line-height:1.25;font-family:sans-serif;letter-spacing:0px;word-spacing:0px;fill:#000000;fill-opacity:1;stroke:none;stroke-width:0.264583"
       x="67.397018"
       y="46.568359"
       id="text2926"><tspan
         sodipodi:role="line"
         id="tspan2924"
         x="67.397018"
         y="46.568359"
         style="stroke-width:0.264583">•âge</tspan><tspan
         id="tspan2951"
         sodipodi:role="line"
         x="67.397018"
         y="51.86002"
         style="stroke-width:0.264583">•pelage</tspan><tspan
         sodipodi:role="line"
         x="67.397018"
         y="57.151684"
         style="stroke-width:0.264583"
         id="tspan2928">•surnom</tspan><tspan
         id="tspan2910"
         sodipodi:role="line"
         x="67.397018"
         y="62.443348"
         style="stroke-width:0.264583" /><tspan
         id="tspan2908"
         sodipodi:role="line"
         x="67.397018"
         y="67.735008"
         style="stroke-width:0.264583" /><tspan
         id="tspan2906"
         sodipodi:role="line"
         x="67.397018"
         y="73.026665"
         style="stroke-width:0.264583" /><tspan
         id="tspan2904"
         sodipodi:role="line"
         x="67.397018"
         y="78.318329"
         style="stroke-width:0.264583" /></text>
    <g
       inkscape:export-ydpi="96.580246"
       inkscape:export-xdpi="96.580246"
       style="fill:url(#Strips1_1);fill-opacity:1.0"
       transform="matrix(0.06373268,0,0,0.05167977,103.29207,6.0789264)"
       id="g973">
      <path
         style="fill:url(#Strips1_1);fill-opacity:1.0"
         d="m 45.594,366.818 c 0,-1.602 0.028,-3.197 0.073,-4.788 C 36.135,350.268 30.916,334.849 30.916,318.191 V 213.98 c 0,-23.145 18.605,-41.976 41.474,-41.976 39.916,0 72.391,-32.699 72.391,-72.892 v -42.04 c 0,-8.537 -6.921,-15.458 -15.458,-15.458 -8.537,0 -15.458,6.921 -15.458,15.458 v 42.04 c 0,23.145 -18.605,41.975 -41.474,41.975 C 32.475,141.087 0,173.786 0,213.98 v 104.21 c 0,25.684 8.923,49.606 25.124,67.362 7.182,7.871 15.541,14.221 24.734,18.93 -2.788,-12.107 -4.264,-24.715 -4.264,-37.664 z"
         id="path967" />
      <path
         style="fill:url(#Strips1_1);fill-opacity:1.0"
         d="m 325.723,248.751 c -4.897,-4.941 -9.337,-10.218 -13.314,-15.772 H 210.793 c -73.075,0 -132.526,60.04 -132.526,133.839 0,73.799 59.451,133.84 132.526,133.84 h 61.34 V 382.7 c 0,-32.391 -26.014,-58.752 -58.023,-58.84 -8.572,-0.024 -15.915,-6.708 -16.462,-15.262 -0.608,-9.509 6.924,-17.41 16.302,-17.41 50.098,0 90.856,41.052 90.856,91.513 v 117.957 h 133.808 c 6.551,0 11.156,-6.562 8.808,-12.677 -5.552,-14.458 -19.445,-24.732 -35.664,-24.732 -0.178,0 -0.354,-0.003 -0.531,-0.009 -0.175,0.005 -0.354,0.011 -0.529,0.009 -9.005,10e-4 -16.315,-7.29 -16.335,-16.299 l -0.182,-80.406 c -0.011,-4.659 1.97,-9.102 5.441,-12.21 24.83,-22.223 40.638,-45.702 48.25,-72.094 -10.364,2.704 -21.138,4.105 -32.128,4.105 -34.021,-0.001 -65.991,-13.352 -90.021,-37.594 z"
         id="path969" />
      <path
         style="fill:url(#Strips1_1);fill-opacity:1.0"
         d="M 512,158.322 V 16.546 c 0,-4.737 -5.823,-7.001 -9.022,-3.508 l -44.779,48.876 c -11.35,12.389 -27.313,19.433 -44.035,19.433 -16.853,0 -32.928,-7.155 -44.289,-19.712 L 328.532,15.938 c -3.189,-3.525 -9.044,-1.269 -9.044,3.484 v 138.899 c 0,53.63 43.095,97.105 96.256,97.105 53.161,0 96.256,-43.475 96.256,-97.104 z m -129.35,-6.803 c -7.508,3.556 -16.452,0.298 -19.976,-7.276 -3.525,-7.574 -0.295,-16.597 7.213,-20.153 7.508,-3.556 16.452,-0.298 19.977,7.276 3.524,7.574 0.295,16.597 -7.214,20.153 z m 78.951,0 c -7.508,3.556 -16.452,0.298 -19.977,-7.276 -3.525,-7.574 -0.295,-16.597 7.213,-20.153 7.508,-3.556 16.452,-0.298 19.977,7.276 3.524,7.574 0.295,16.597 -7.213,20.153 z"
         id="path971" />
    </g>
    <text
       inkscape:export-ydpi="96.580246"
       inkscape:export-xdpi="96.580246"
       id="text2926-3"
       y="50.14814"
       x="103.08002"
       style="font-style:normal;font-weight:normal;font-size:4.23333px;line-height:1.25;font-family:sans-serif;letter-spacing:0px;word-spacing:0px;fill:#000000;fill-opacity:1;stroke:none;stroke-width:0.264583"
       xml:space="preserve"><tspan
         style="stroke-width:0.264583"
         y="50.14814"
         x="103.08002"
         sodipodi:role="line"
         id="tspan2910-5">•attrape_souris()</tspan><tspan
         style="stroke-width:0.264583"
         y="55.439804"
         x="103.08002"
         sodipodi:role="line"
         id="tspan2908-3" /><tspan
         style="stroke-width:0.264583"
         y="60.731464"
         x="103.08002"
         sodipodi:role="line"
         id="tspan2906-5" /><tspan
         style="stroke-width:0.264583"
         y="66.023125"
         x="103.08002"
         sodipodi:role="line"
         id="tspan2904-6" /></text>
  </g>
</svg>
