<?xml version="1.0" encoding="UTF-8" standalone="no"?>
<!-- Created with Inkscape (http://www.inkscape.org/) -->

<svg
   sodipodi:docname="TP_balles.svg"
   inkscape:version="1.1.2 (0a00cf5339, 2022-02-04)"
   id="svg5"
   version="1.1"
   viewBox="0 0 210 297"
   height="297mm"
   width="210mm"
   xmlns:inkscape="http://www.inkscape.org/namespaces/inkscape"
   xmlns:sodipodi="http://sodipodi.sourceforge.net/DTD/sodipodi-0.dtd"
   xmlns:xlink="http://www.w3.org/1999/xlink"
   xmlns="http://www.w3.org/2000/svg"
   xmlns:svg="http://www.w3.org/2000/svg">
  <sodipodi:namedview
     id="namedview7"
     pagecolor="#ffffff"
     bordercolor="#666666"
     borderopacity="1.0"
     inkscape:pageshadow="2"
     inkscape:pageopacity="0.0"
     inkscape:pagecheckerboard="0"
     inkscape:document-units="mm"
     showgrid="true"
     inkscape:snap-global="false"
     inkscape:zoom="1.4051443"
     inkscape:cx="326.301"
     inkscape:cy="306.01839"
     inkscape:window-width="1880"
     inkscape:window-height="1141"
     inkscape:window-x="40"
     inkscape:window-y="0"
     inkscape:window-maximized="1"
     inkscape:current-layer="layer1">
    <inkscape:grid
       type="xygrid"
       id="grid824" />
  </sodipodi:namedview>
  <defs
     id="defs2">
    <marker
       style="overflow:visible;"
       id="Arrow2Send"
       refX="0.0"
       refY="0.0"
       orient="auto"
       inkscape:stockid="Arrow2Send"
       inkscape:isstock="true">
      <path
         transform="scale(0.3) rotate(180) translate(-2.3,0)"
         d="M 8.7185878,4.0337352 L -2.2072895,0.016013256 L 8.7185884,-4.0017078 C 6.9730900,-1.6296469 6.9831476,1.6157441 8.7185878,4.0337352 z "
         style="stroke:context-stroke;fill-rule:evenodd;fill:context-stroke;stroke-width:0.62500000;stroke-linejoin:round;"
         id="path894" />
    </marker>
    <marker
       style="overflow:visible;"
       id="Arrow2Mend"
       refX="0.0"
       refY="0.0"
       orient="auto"
       inkscape:stockid="Arrow2Mend"
       inkscape:isstock="true">
      <path
         transform="scale(0.6) rotate(180) translate(0,0)"
         d="M 8.7185878,4.0337352 L -2.2072895,0.016013256 L 8.7185884,-4.0017078 C 6.9730900,-1.6296469 6.9831476,1.6157441 8.7185878,4.0337352 z "
         style="stroke:context-stroke;fill-rule:evenodd;fill:context-stroke;stroke-width:0.62500000;stroke-linejoin:round;"
         id="path888" />
    </marker>
    <marker
       style="overflow:visible;"
       id="Arrow1Mend"
       refX="0.0"
       refY="0.0"
       orient="auto"
       inkscape:stockid="Arrow1Mend"
       inkscape:isstock="true">
      <path
         transform="scale(0.4) rotate(180) translate(10,0)"
         style="fill-rule:evenodd;fill:context-stroke;stroke:context-stroke;stroke-width:1.0pt;"
         d="M 0.0,0.0 L 5.0,-5.0 L -12.5,0.0 L 5.0,5.0 L 0.0,0.0 z "
         id="path870" />
    </marker>
    <marker
       style="overflow:visible;"
       id="Arrow2Lend"
       refX="0.0"
       refY="0.0"
       orient="auto"
       inkscape:stockid="Arrow2Lend"
       inkscape:isstock="true">
      <path
         transform="scale(1.1) rotate(180) translate(1,0)"
         d="M 8.7185878,4.0337352 L -2.2072895,0.016013256 L 8.7185884,-4.0017078 C 6.9730900,-1.6296469 6.9831476,1.6157441 8.7185878,4.0337352 z "
         style="stroke:context-stroke;fill-rule:evenodd;fill:context-stroke;stroke-width:0.62500000;stroke-linejoin:round;"
         id="path882" />
    </marker>
    <marker
       style="overflow:visible"
       id="Arrow2Send-5"
       refX="0"
       refY="0"
       orient="auto"
       inkscape:stockid="Arrow2Send"
       inkscape:isstock="true">
      <path
         transform="matrix(-0.3,0,0,-0.3,0.69,0)"
         d="M 8.7185878,4.0337352 -2.2072895,0.01601326 8.7185884,-4.0017078 c -1.7454984,2.3720609 -1.7354408,5.6174519 -6e-7,8.035443 z"
         style="fill:context-stroke;fill-rule:evenodd;stroke:context-stroke;stroke-width:0.625;stroke-linejoin:round"
         id="path894-3" />
    </marker>
    <marker
       style="overflow:visible"
       id="Arrow2Send-6"
       refX="0"
       refY="0"
       orient="auto"
       inkscape:stockid="Arrow2Send"
       inkscape:isstock="true">
      <path
         transform="matrix(-0.3,0,0,-0.3,0.69,0)"
         d="M 8.7185878,4.0337352 -2.2072895,0.01601326 8.7185884,-4.0017078 c -1.7454984,2.3720609 -1.7354408,5.6174519 -6e-7,8.035443 z"
         style="fill:context-stroke;fill-rule:evenodd;stroke:context-stroke;stroke-width:0.625;stroke-linejoin:round"
         id="path894-1" />
    </marker>
    <g
       id="g8716">
      <symbol
         overflow="visible"
         id="symbol5024">
        <path
           style="stroke:none;"
           d=""
           id="path9449" />
      </symbol>
      <symbol
         overflow="visible"
         id="symbol5131">
        <path
           style="stroke:none;"
           d="M 2.640625 -3.71875 L 3.765625 -3.71875 C 3.4375 -2.25 3.34375 -1.8125 3.34375 -1.140625 C 3.34375 -1 3.34375 -0.734375 3.421875 -0.390625 C 3.53125 0.046875 3.640625 0.109375 3.78125 0.109375 C 3.984375 0.109375 4.203125 -0.0625 4.203125 -0.265625 C 4.203125 -0.328125 4.203125 -0.34375 4.140625 -0.484375 C 3.84375 -1.203125 3.84375 -1.859375 3.84375 -2.140625 C 3.84375 -2.65625 3.921875 -3.203125 4.03125 -3.71875 L 5.15625 -3.71875 C 5.296875 -3.71875 5.65625 -3.71875 5.65625 -4.0625 C 5.65625 -4.296875 5.4375 -4.296875 5.25 -4.296875 L 1.90625 -4.296875 C 1.6875 -4.296875 1.3125 -4.296875 0.875 -3.828125 C 0.53125 -3.4375 0.265625 -2.984375 0.265625 -2.9375 C 0.265625 -2.921875 0.265625 -2.828125 0.390625 -2.828125 C 0.46875 -2.828125 0.484375 -2.875 0.546875 -2.953125 C 1.03125 -3.71875 1.609375 -3.71875 1.8125 -3.71875 L 2.375 -3.71875 C 2.0625 -2.515625 1.53125 -1.3125 1.109375 -0.40625 C 1.03125 -0.25 1.03125 -0.234375 1.03125 -0.15625 C 1.03125 0.03125 1.1875 0.109375 1.3125 0.109375 C 1.609375 0.109375 1.6875 -0.171875 1.8125 -0.53125 C 1.953125 -1 1.953125 -1.015625 2.078125 -1.515625 Z M 2.640625 -3.71875 "
           id="path7381" />
      </symbol>
      <symbol
         overflow="visible"
         id="symbol7205">
        <path
           style="stroke:none;"
           d="M 2.859375 -6.8125 C 2.859375 -6.8125 2.859375 -6.921875 2.734375 -6.921875 C 2.5 -6.921875 1.78125 -6.84375 1.515625 -6.8125 C 1.4375 -6.8125 1.328125 -6.796875 1.328125 -6.625 C 1.328125 -6.5 1.421875 -6.5 1.5625 -6.5 C 2.046875 -6.5 2.0625 -6.4375 2.0625 -6.328125 L 2.03125 -6.125 L 0.59375 -0.390625 C 0.546875 -0.25 0.546875 -0.234375 0.546875 -0.171875 C 0.546875 0.0625 0.75 0.109375 0.84375 0.109375 C 0.96875 0.109375 1.109375 0.015625 1.171875 -0.09375 C 1.21875 -0.1875 1.671875 -2.03125 1.734375 -2.28125 C 2.078125 -2.25 2.890625 -2.09375 2.890625 -1.4375 C 2.890625 -1.359375 2.890625 -1.328125 2.859375 -1.21875 C 2.84375 -1.109375 2.828125 -0.984375 2.828125 -0.875 C 2.828125 -0.296875 3.21875 0.109375 3.734375 0.109375 C 4.03125 0.109375 4.3125 -0.046875 4.53125 -0.421875 C 4.78125 -0.859375 4.890625 -1.40625 4.890625 -1.421875 C 4.890625 -1.53125 4.796875 -1.53125 4.765625 -1.53125 C 4.671875 -1.53125 4.65625 -1.484375 4.625 -1.34375 C 4.421875 -0.625 4.203125 -0.109375 3.765625 -0.109375 C 3.5625 -0.109375 3.4375 -0.21875 3.4375 -0.578125 C 3.4375 -0.75 3.484375 -0.984375 3.515625 -1.140625 C 3.5625 -1.3125 3.5625 -1.34375 3.5625 -1.453125 C 3.5625 -2.09375 2.9375 -2.375 2.078125 -2.5 C 2.390625 -2.671875 2.71875 -2.984375 2.9375 -3.234375 C 3.421875 -3.765625 3.875 -4.1875 4.359375 -4.1875 C 4.421875 -4.1875 4.4375 -4.1875 4.453125 -4.171875 C 4.578125 -4.15625 4.578125 -4.15625 4.671875 -4.09375 C 4.6875 -4.09375 4.6875 -4.078125 4.703125 -4.0625 C 4.234375 -4.03125 4.140625 -3.640625 4.140625 -3.515625 C 4.140625 -3.359375 4.25 -3.171875 4.515625 -3.171875 C 4.78125 -3.171875 5.0625 -3.390625 5.0625 -3.78125 C 5.0625 -4.078125 4.828125 -4.40625 4.390625 -4.40625 C 4.109375 -4.40625 3.65625 -4.328125 2.9375 -3.53125 C 2.59375 -3.15625 2.203125 -2.75 1.828125 -2.609375 Z M 2.859375 -6.8125 "
           id="path1714" />
      </symbol>
      <symbol
         overflow="visible"
         id="symbol3391">
        <path
           style="stroke:none;"
           d=""
           id="path3721" />
      </symbol>
      <symbol
         overflow="visible"
         id="symbol962">
        <path
           style="stroke:none;"
           d="M 3.515625 -1.265625 L 3.28125 -1.265625 C 3.265625 -1.109375 3.1875 -0.703125 3.09375 -0.640625 C 3.046875 -0.59375 2.515625 -0.59375 2.40625 -0.59375 L 1.125 -0.59375 C 1.859375 -1.234375 2.109375 -1.4375 2.515625 -1.765625 C 3.03125 -2.171875 3.515625 -2.609375 3.515625 -3.265625 C 3.515625 -4.109375 2.78125 -4.625 1.890625 -4.625 C 1.03125 -4.625 0.4375 -4.015625 0.4375 -3.375 C 0.4375 -3.03125 0.734375 -2.984375 0.8125 -2.984375 C 0.96875 -2.984375 1.171875 -3.109375 1.171875 -3.359375 C 1.171875 -3.484375 1.125 -3.734375 0.765625 -3.734375 C 0.984375 -4.21875 1.453125 -4.375 1.78125 -4.375 C 2.484375 -4.375 2.84375 -3.828125 2.84375 -3.265625 C 2.84375 -2.65625 2.40625 -2.1875 2.1875 -1.9375 L 0.515625 -0.265625 C 0.4375 -0.203125 0.4375 -0.1875 0.4375 0 L 3.3125 0 Z M 3.515625 -1.265625 "
           id="path593" />
      </symbol>
      <symbol
         overflow="visible"
         id="symbol6247">
        <path
           style="stroke:none;"
           d="M 5.359375 -2.34375 C 5.453125 -2.34375 5.609375 -2.34375 5.609375 -2.515625 C 5.609375 -2.6875 5.453125 -2.6875 5.359375 -2.6875 L 0.75 -2.6875 C 0.65625 -2.6875 0.484375 -2.6875 0.484375 -2.515625 C 0.484375 -2.34375 0.640625 -2.34375 0.75 -2.34375 Z M 5.359375 -0.8125 C 5.453125 -0.8125 5.609375 -0.8125 5.609375 -0.96875 C 5.609375 -1.15625 5.453125 -1.15625 5.359375 -1.15625 L 0.75 -1.15625 C 0.640625 -1.15625 0.484375 -1.15625 0.484375 -0.96875 C 0.484375 -0.8125 0.65625 -0.8125 0.75 -0.8125 Z M 5.359375 -0.8125 "
           id="path2157" />
      </symbol>
      <symbol
         overflow="visible"
         id="symbol562">
        <path
           style="stroke:none;"
           d="M 2.328125 -4.4375 C 2.328125 -4.625 2.328125 -4.625 2.125 -4.625 C 1.671875 -4.1875 1.046875 -4.1875 0.765625 -4.1875 L 0.765625 -3.9375 C 0.921875 -3.9375 1.390625 -3.9375 1.765625 -4.125 L 1.765625 -0.578125 C 1.765625 -0.34375 1.765625 -0.25 1.078125 -0.25 L 0.8125 -0.25 L 0.8125 0 C 0.9375 0 1.796875 -0.03125 2.046875 -0.03125 C 2.265625 -0.03125 3.140625 0 3.296875 0 L 3.296875 -0.25 L 3.03125 -0.25 C 2.328125 -0.25 2.328125 -0.34375 2.328125 -0.578125 Z M 2.328125 -4.4375 "
           id="path3366" />
      </symbol>
      <symbol
         overflow="visible"
         id="symbol110">
        <path
           style="stroke:none;"
           d=""
           id="path6215" />
      </symbol>
      <symbol
         overflow="visible"
         id="symbol9555">
        <path
           style="stroke:none;"
           d="M 1.3125 -3.265625 L 1.3125 -3.515625 C 1.3125 -6.03125 2.546875 -6.390625 3.0625 -6.390625 C 3.296875 -6.390625 3.71875 -6.328125 3.9375 -5.984375 C 3.78125 -5.984375 3.390625 -5.984375 3.390625 -5.546875 C 3.390625 -5.234375 3.625 -5.078125 3.84375 -5.078125 C 4 -5.078125 4.3125 -5.171875 4.3125 -5.5625 C 4.3125 -6.15625 3.875 -6.640625 3.046875 -6.640625 C 1.765625 -6.640625 0.421875 -5.359375 0.421875 -3.15625 C 0.421875 -0.484375 1.578125 0.21875 2.5 0.21875 C 3.609375 0.21875 4.5625 -0.71875 4.5625 -2.03125 C 4.5625 -3.296875 3.671875 -4.25 2.5625 -4.25 C 1.890625 -4.25 1.515625 -3.75 1.3125 -3.265625 Z M 2.5 -0.0625 C 1.875 -0.0625 1.578125 -0.65625 1.515625 -0.8125 C 1.328125 -1.28125 1.328125 -2.078125 1.328125 -2.25 C 1.328125 -3.03125 1.65625 -4.03125 2.546875 -4.03125 C 2.71875 -4.03125 3.171875 -4.03125 3.484375 -3.40625 C 3.65625 -3.046875 3.65625 -2.53125 3.65625 -2.046875 C 3.65625 -1.5625 3.65625 -1.0625 3.484375 -0.703125 C 3.1875 -0.109375 2.734375 -0.0625 2.5 -0.0625 Z M 2.5 -0.0625 "
           id="path5604" />
      </symbol>
      <symbol
         overflow="visible"
         id="symbol3981">
        <path
           style="stroke:none;"
           d="M 6.84375 -3.265625 C 7 -3.265625 7.1875 -3.265625 7.1875 -3.453125 C 7.1875 -3.65625 7 -3.65625 6.859375 -3.65625 L 0.890625 -3.65625 C 0.75 -3.65625 0.5625 -3.65625 0.5625 -3.453125 C 0.5625 -3.265625 0.75 -3.265625 0.890625 -3.265625 Z M 6.859375 -1.328125 C 7 -1.328125 7.1875 -1.328125 7.1875 -1.53125 C 7.1875 -1.71875 7 -1.71875 6.84375 -1.71875 L 0.890625 -1.71875 C 0.75 -1.71875 0.5625 -1.71875 0.5625 -1.53125 C 0.5625 -1.328125 0.75 -1.328125 0.890625 -1.328125 Z M 6.859375 -1.328125 "
           id="path3144" />
      </symbol>
      <symbol
         overflow="visible"
         id="symbol4179">
        <path
           style="stroke:none;"
           d="M 1.765625 -6.921875 L 0.328125 -6.8125 L 0.328125 -6.5 C 1.03125 -6.5 1.109375 -6.4375 1.109375 -5.9375 L 1.109375 -0.75 C 1.109375 -0.3125 1 -0.3125 0.328125 -0.3125 L 0.328125 0 C 0.65625 -0.015625 1.1875 -0.03125 1.4375 -0.03125 C 1.6875 -0.03125 2.171875 -0.015625 2.546875 0 L 2.546875 -0.3125 C 1.875 -0.3125 1.765625 -0.3125 1.765625 -0.75 Z M 1.765625 -6.921875 "
           id="path6422" />
      </symbol>
      <symbol
         overflow="visible"
         id="symbol2592">
        <path
           style="stroke:none;"
           d="M 1.765625 -4.40625 L 0.375 -4.296875 L 0.375 -3.984375 C 1.015625 -3.984375 1.109375 -3.921875 1.109375 -3.4375 L 1.109375 -0.75 C 1.109375 -0.3125 1 -0.3125 0.328125 -0.3125 L 0.328125 0 C 0.640625 -0.015625 1.1875 -0.03125 1.421875 -0.03125 C 1.78125 -0.03125 2.125 -0.015625 2.46875 0 L 2.46875 -0.3125 C 1.796875 -0.3125 1.765625 -0.359375 1.765625 -0.75 Z M 1.796875 -6.140625 C 1.796875 -6.453125 1.5625 -6.671875 1.28125 -6.671875 C 0.96875 -6.671875 0.75 -6.40625 0.75 -6.140625 C 0.75 -5.875 0.96875 -5.609375 1.28125 -5.609375 C 1.5625 -5.609375 1.796875 -5.828125 1.796875 -6.140625 Z M 1.796875 -6.140625 "
           id="path7850" />
      </symbol>
      <symbol
         overflow="visible"
         id="symbol3105">
        <path
           style="stroke:none;"
           d="M 1.09375 -3.421875 L 1.09375 -0.75 C 1.09375 -0.3125 0.984375 -0.3125 0.3125 -0.3125 L 0.3125 0 C 0.671875 -0.015625 1.171875 -0.03125 1.453125 -0.03125 C 1.703125 -0.03125 2.21875 -0.015625 2.5625 0 L 2.5625 -0.3125 C 1.890625 -0.3125 1.78125 -0.3125 1.78125 -0.75 L 1.78125 -2.59375 C 1.78125 -3.625 2.5 -4.1875 3.125 -4.1875 C 3.765625 -4.1875 3.875 -3.65625 3.875 -3.078125 L 3.875 -0.75 C 3.875 -0.3125 3.765625 -0.3125 3.09375 -0.3125 L 3.09375 0 C 3.4375 -0.015625 3.953125 -0.03125 4.21875 -0.03125 C 4.46875 -0.03125 5 -0.015625 5.328125 0 L 5.328125 -0.3125 C 4.671875 -0.3125 4.5625 -0.3125 4.5625 -0.75 L 4.5625 -2.59375 C 4.5625 -3.625 5.265625 -4.1875 5.90625 -4.1875 C 6.53125 -4.1875 6.640625 -3.65625 6.640625 -3.078125 L 6.640625 -0.75 C 6.640625 -0.3125 6.53125 -0.3125 5.859375 -0.3125 L 5.859375 0 C 6.203125 -0.015625 6.71875 -0.03125 6.984375 -0.03125 C 7.25 -0.03125 7.765625 -0.015625 8.109375 0 L 8.109375 -0.3125 C 7.59375 -0.3125 7.34375 -0.3125 7.328125 -0.609375 L 7.328125 -2.515625 C 7.328125 -3.375 7.328125 -3.671875 7.015625 -4.03125 C 6.875 -4.203125 6.546875 -4.40625 5.96875 -4.40625 C 5.140625 -4.40625 4.6875 -3.8125 4.53125 -3.421875 C 4.390625 -4.296875 3.65625 -4.40625 3.203125 -4.40625 C 2.46875 -4.40625 2 -3.984375 1.71875 -3.359375 L 1.71875 -4.40625 L 0.3125 -4.296875 L 0.3125 -3.984375 C 1.015625 -3.984375 1.09375 -3.921875 1.09375 -3.421875 Z M 1.09375 -3.421875 "
           id="path8410" />
      </symbol>
      <symbol
         overflow="visible"
         id="symbol373">
        <path
           style="stroke:none;"
           d="M 2.9375 -6.375 C 2.9375 -6.625 2.9375 -6.640625 2.703125 -6.640625 C 2.078125 -6 1.203125 -6 0.890625 -6 L 0.890625 -5.6875 C 1.09375 -5.6875 1.671875 -5.6875 2.1875 -5.953125 L 2.1875 -0.78125 C 2.1875 -0.421875 2.15625 -0.3125 1.265625 -0.3125 L 0.953125 -0.3125 L 0.953125 0 C 1.296875 -0.03125 2.15625 -0.03125 2.5625 -0.03125 C 2.953125 -0.03125 3.828125 -0.03125 4.171875 0 L 4.171875 -0.3125 L 3.859375 -0.3125 C 2.953125 -0.3125 2.9375 -0.421875 2.9375 -0.78125 Z M 2.9375 -6.375 "
           id="path1593" />
      </symbol>
      <symbol
         overflow="visible"
         id="symbol6620">
        <path
           style="stroke:none;"
           d=""
           id="path657" />
      </symbol>
      <symbol
         overflow="visible"
         id="symbol4730">
        <path
           style="stroke:none;"
           d="M 0.84375 -0.4375 C 0.828125 -0.34375 0.78125 -0.171875 0.78125 -0.15625 C 0.78125 0 0.90625 0.0625 1.015625 0.0625 C 1.140625 0.0625 1.25 -0.015625 1.296875 -0.078125 C 1.328125 -0.140625 1.375 -0.375 1.421875 -0.515625 C 1.453125 -0.640625 1.53125 -0.96875 1.5625 -1.140625 C 1.609375 -1.296875 1.65625 -1.453125 1.6875 -1.609375 C 1.765625 -1.890625 1.78125 -1.953125 1.984375 -2.234375 C 2.171875 -2.515625 2.5 -2.875 3.03125 -2.875 C 3.421875 -2.875 3.4375 -2.515625 3.4375 -2.390625 C 3.4375 -1.96875 3.140625 -1.203125 3.03125 -0.90625 C 2.953125 -0.703125 2.921875 -0.640625 2.921875 -0.53125 C 2.921875 -0.15625 3.21875 0.0625 3.578125 0.0625 C 4.28125 0.0625 4.578125 -0.890625 4.578125 -1 C 4.578125 -1.09375 4.5 -1.09375 4.46875 -1.09375 C 4.375 -1.09375 4.375 -1.046875 4.34375 -0.96875 C 4.1875 -0.40625 3.875 -0.125 3.609375 -0.125 C 3.453125 -0.125 3.421875 -0.21875 3.421875 -0.375 C 3.421875 -0.53125 3.46875 -0.625 3.59375 -0.9375 C 3.671875 -1.15625 3.953125 -1.890625 3.953125 -2.28125 C 3.953125 -2.953125 3.421875 -3.078125 3.046875 -3.078125 C 2.46875 -3.078125 2.078125 -2.71875 1.875 -2.4375 C 1.828125 -2.921875 1.421875 -3.078125 1.125 -3.078125 C 0.828125 -3.078125 0.671875 -2.859375 0.578125 -2.703125 C 0.421875 -2.4375 0.328125 -2.046875 0.328125 -2 C 0.328125 -1.921875 0.421875 -1.921875 0.453125 -1.921875 C 0.546875 -1.921875 0.546875 -1.9375 0.59375 -2.125 C 0.703125 -2.53125 0.84375 -2.875 1.109375 -2.875 C 1.296875 -2.875 1.34375 -2.71875 1.34375 -2.53125 C 1.34375 -2.40625 1.28125 -2.140625 1.21875 -1.953125 C 1.171875 -1.765625 1.109375 -1.484375 1.078125 -1.328125 Z M 0.84375 -0.4375 "
           id="path3441" />
      </symbol>
      <symbol
         overflow="visible"
         id="symbol5927">
        <path
           style="stroke:none;"
           d="M 2.1875 -4.625 C 2.1875 -4.640625 2.203125 -4.734375 2.203125 -4.734375 C 2.203125 -4.78125 2.1875 -4.84375 2.09375 -4.84375 C 1.953125 -4.84375 1.375 -4.78125 1.203125 -4.765625 C 1.15625 -4.765625 1.046875 -4.75 1.046875 -4.609375 C 1.046875 -4.515625 1.15625 -4.515625 1.234375 -4.515625 C 1.5625 -4.515625 1.5625 -4.453125 1.5625 -4.40625 C 1.5625 -4.359375 1.546875 -4.3125 1.546875 -4.25 L 0.5625 -0.3125 C 0.515625 -0.1875 0.515625 -0.171875 0.515625 -0.15625 C 0.515625 -0.046875 0.609375 0.0625 0.765625 0.0625 C 0.953125 0.0625 1.03125 -0.0625 1.078125 -0.21875 C 1.09375 -0.25 1.390625 -1.484375 1.421875 -1.578125 C 1.921875 -1.53125 2.3125 -1.359375 2.3125 -1 C 2.3125 -0.96875 2.3125 -0.9375 2.296875 -0.859375 C 2.265625 -0.765625 2.265625 -0.71875 2.265625 -0.640625 C 2.265625 -0.15625 2.671875 0.0625 3.015625 0.0625 C 3.6875 0.0625 3.890625 -0.984375 3.890625 -1 C 3.890625 -1.09375 3.8125 -1.09375 3.78125 -1.09375 C 3.6875 -1.09375 3.671875 -1.046875 3.640625 -0.921875 C 3.5625 -0.625 3.375 -0.125 3.03125 -0.125 C 2.84375 -0.125 2.78125 -0.296875 2.78125 -0.484375 C 2.78125 -0.609375 2.78125 -0.625 2.828125 -0.796875 C 2.84375 -0.828125 2.859375 -0.9375 2.859375 -1.015625 C 2.859375 -1.640625 2.03125 -1.734375 1.734375 -1.75 C 1.9375 -1.875 2.1875 -2.109375 2.3125 -2.21875 C 2.671875 -2.546875 3.015625 -2.875 3.40625 -2.875 C 3.484375 -2.875 3.578125 -2.859375 3.640625 -2.78125 C 3.34375 -2.734375 3.28125 -2.5 3.28125 -2.390625 C 3.28125 -2.25 3.390625 -2.140625 3.546875 -2.140625 C 3.75 -2.140625 3.953125 -2.296875 3.953125 -2.578125 C 3.953125 -2.8125 3.78125 -3.078125 3.421875 -3.078125 C 3.015625 -3.078125 2.65625 -2.78125 2.296875 -2.453125 C 2 -2.1875 1.78125 -1.96875 1.484375 -1.84375 Z M 2.1875 -4.625 "
           id="path3058" />
      </symbol>
      <symbol
         overflow="visible"
         id="symbol4733">
        <path
           style="stroke:none;"
           d=""
           id="path6672" />
      </symbol>
      <symbol
         overflow="visible"
         id="symbol6779">
        <path
           style="stroke:none;"
           d="M 6.40625 -1.578125 C 5.53125 -0.9375 5.421875 -0.015625 5.421875 -0.015625 C 5.421875 0.09375 5.484375 0.09375 5.578125 0.09375 C 5.703125 0.09375 5.734375 0.09375 5.765625 -0.03125 C 5.8125 -0.203125 5.921875 -0.640625 6.28125 -1.03125 C 6.6875 -1.453125 7.03125 -1.5625 7.328125 -1.65625 C 7.359375 -1.671875 7.390625 -1.703125 7.390625 -1.734375 C 7.390625 -1.8125 7.359375 -1.828125 7.265625 -1.859375 C 6.265625 -2.171875 5.90625 -2.890625 5.75 -3.5 C 5.734375 -3.578125 5.671875 -3.578125 5.578125 -3.578125 C 5.484375 -3.578125 5.421875 -3.578125 5.421875 -3.484375 C 5.421875 -3.46875 5.484375 -3 5.828125 -2.515625 C 5.984375 -2.28125 6.1875 -2.078125 6.40625 -1.921875 L 0.8125 -1.921875 C 0.703125 -1.921875 0.53125 -1.921875 0.53125 -1.75 C 0.53125 -1.578125 0.703125 -1.578125 0.8125 -1.578125 Z M 6.40625 -1.578125 "
           id="path915" />
      </symbol>
      <symbol
         overflow="visible"
         id="symbol6477">
        <path
           style="stroke:none;"
           d="M 4.03125 -1.90625 C 3.65625 -2.34375 3.546875 -2.453125 3.28125 -2.640625 C 2.859375 -2.953125 2.40625 -3.078125 2.03125 -3.078125 C 1.15625 -3.078125 0.53125 -2.328125 0.53125 -1.5 C 0.53125 -0.6875 1.140625 0.0625 2 0.0625 C 2.96875 0.0625 3.65625 -0.71875 3.90625 -1.09375 C 4.265625 -0.65625 4.390625 -0.546875 4.640625 -0.359375 C 5.078125 -0.046875 5.515625 0.0625 5.90625 0.0625 C 6.765625 0.0625 7.390625 -0.671875 7.390625 -1.5 C 7.390625 -2.328125 6.796875 -3.078125 5.921875 -3.078125 C 4.953125 -3.078125 4.28125 -2.28125 4.03125 -1.90625 Z M 4.25 -1.65625 C 4.53125 -2.109375 5.140625 -2.8125 5.984375 -2.8125 C 6.703125 -2.8125 7.203125 -2.171875 7.203125 -1.5 C 7.203125 -0.84375 6.65625 -0.3125 6.015625 -0.3125 C 5.359375 -0.3125 4.921875 -0.84375 4.25 -1.65625 Z M 3.671875 -1.359375 C 3.40625 -0.90625 2.796875 -0.1875 1.9375 -0.1875 C 1.21875 -0.1875 0.734375 -0.828125 0.734375 -1.5 C 0.734375 -2.171875 1.28125 -2.6875 1.921875 -2.6875 C 2.5625 -2.6875 3.015625 -2.15625 3.671875 -1.359375 Z M 3.671875 -1.359375 "
           id="path2950" />
      </symbol>
      <symbol
         overflow="visible"
         id="symbol4239">
        <path
           style="stroke:none;"
           d=""
           id="path7795" />
      </symbol>
      <symbol
         overflow="visible"
         id="symbol7794">
        <path
           style="stroke:none;"
           d="M 12.625 13.953125 L 13.828125 10.765625 L 13.578125 10.765625 C 13.1875 11.796875 12.125 12.484375 10.984375 12.78125 C 10.78125 12.828125 9.796875 13.09375 7.890625 13.09375 L 1.875 13.09375 L 6.953125 7.140625 C 7.015625 7.0625 7.03125 7.03125 7.03125 6.984375 C 7.03125 6.953125 7.03125 6.921875 6.96875 6.828125 L 2.328125 0.484375 L 7.78125 0.484375 C 9.125 0.484375 10.03125 0.625 10.125 0.640625 C 10.65625 0.71875 11.53125 0.890625 12.3125 1.390625 C 12.5625 1.546875 13.234375 2 13.578125 2.796875 L 13.828125 2.796875 L 12.625 0 L 0.84375 0 C 0.609375 0 0.59375 0.015625 0.5625 0.0625 C 0.5625 0.09375 0.5625 0.296875 0.5625 0.40625 L 5.828125 7.609375 L 0.671875 13.671875 C 0.5625 13.78125 0.5625 13.84375 0.5625 13.84375 C 0.5625 13.953125 0.65625 13.953125 0.84375 13.953125 Z M 12.625 13.953125 "
           id="path4724" />
      </symbol>
    </g>
    <g
       id="g8015">
      <symbol
         overflow="visible"
         id="symbol3271">
        <path
           style="stroke:none;"
           d=""
           id="path7544" />
      </symbol>
      <symbol
         overflow="visible"
         id="symbol1704">
        <path
           style="stroke:none;"
           d="M 3.328125 -3.015625 C 3.390625 -3.265625 3.625 -4.1875 4.3125 -4.1875 C 4.359375 -4.1875 4.609375 -4.1875 4.8125 -4.0625 C 4.53125 -4 4.34375 -3.765625 4.34375 -3.515625 C 4.34375 -3.359375 4.453125 -3.171875 4.71875 -3.171875 C 4.9375 -3.171875 5.25 -3.34375 5.25 -3.75 C 5.25 -4.265625 4.671875 -4.40625 4.328125 -4.40625 C 3.75 -4.40625 3.40625 -3.875 3.28125 -3.65625 C 3.03125 -4.3125 2.5 -4.40625 2.203125 -4.40625 C 1.171875 -4.40625 0.59375 -3.125 0.59375 -2.875 C 0.59375 -2.765625 0.703125 -2.765625 0.71875 -2.765625 C 0.796875 -2.765625 0.828125 -2.796875 0.84375 -2.875 C 1.1875 -3.9375 1.84375 -4.1875 2.1875 -4.1875 C 2.375 -4.1875 2.71875 -4.09375 2.71875 -3.515625 C 2.71875 -3.203125 2.546875 -2.546875 2.1875 -1.140625 C 2.03125 -0.53125 1.671875 -0.109375 1.234375 -0.109375 C 1.171875 -0.109375 0.953125 -0.109375 0.734375 -0.234375 C 0.984375 -0.296875 1.203125 -0.5 1.203125 -0.78125 C 1.203125 -1.046875 0.984375 -1.125 0.84375 -1.125 C 0.53125 -1.125 0.296875 -0.875 0.296875 -0.546875 C 0.296875 -0.09375 0.78125 0.109375 1.21875 0.109375 C 1.890625 0.109375 2.25 -0.59375 2.265625 -0.640625 C 2.390625 -0.28125 2.75 0.109375 3.34375 0.109375 C 4.375 0.109375 4.9375 -1.171875 4.9375 -1.421875 C 4.9375 -1.53125 4.859375 -1.53125 4.828125 -1.53125 C 4.734375 -1.53125 4.71875 -1.484375 4.6875 -1.421875 C 4.359375 -0.34375 3.6875 -0.109375 3.375 -0.109375 C 2.984375 -0.109375 2.828125 -0.421875 2.828125 -0.765625 C 2.828125 -0.984375 2.875 -1.203125 2.984375 -1.640625 Z M 3.328125 -3.015625 "
           id="path4204" />
      </symbol>
      <symbol
         overflow="visible"
         id="symbol1498">
        <path
           style="stroke:none;"
           d=""
           id="path2416" />
      </symbol>
      <symbol
         overflow="visible"
         id="symbol9582">
        <path
           style="stroke:none;"
           d="M 1.4375 -0.84375 C 1.1875 -0.453125 0.96875 -0.28125 0.5625 -0.25 C 0.484375 -0.25 0.390625 -0.25 0.390625 -0.109375 C 0.390625 -0.03125 0.453125 0 0.5 0 C 0.671875 0 0.90625 -0.03125 1.09375 -0.03125 C 1.3125 -0.03125 1.609375 0 1.8125 0 C 1.84375 0 1.953125 0 1.953125 -0.15625 C 1.953125 -0.25 1.859375 -0.25 1.828125 -0.25 C 1.78125 -0.265625 1.53125 -0.265625 1.53125 -0.453125 C 1.53125 -0.546875 1.59375 -0.65625 1.625 -0.71875 L 2.1875 -1.59375 L 4.1875 -1.59375 L 4.34375 -0.4375 C 4.328125 -0.359375 4.28125 -0.25 3.875 -0.25 C 3.78125 -0.25 3.6875 -0.25 3.6875 -0.09375 C 3.6875 -0.0625 3.703125 0 3.796875 0 C 4 0 4.5 -0.03125 4.703125 -0.03125 C 4.828125 -0.03125 4.984375 -0.015625 5.109375 -0.015625 C 5.234375 -0.015625 5.375 0 5.5 0 C 5.59375 0 5.640625 -0.0625 5.640625 -0.140625 C 5.640625 -0.25 5.5625 -0.25 5.453125 -0.25 C 5.046875 -0.25 5.03125 -0.3125 5.015625 -0.46875 L 4.390625 -4.78125 C 4.375 -4.921875 4.359375 -4.96875 4.234375 -4.96875 C 4.09375 -4.96875 4.0625 -4.90625 4 -4.8125 Z M 2.359375 -1.84375 L 3.8125 -4.125 L 4.140625 -1.84375 Z M 2.359375 -1.84375 "
           id="path3142" />
      </symbol>
    </g>
    <g
       id="g5497">
      <symbol
         overflow="visible"
         id="symbol5323">
        <path
           style="stroke:none;"
           d=""
           id="path6449" />
      </symbol>
      <symbol
         overflow="visible"
         id="symbol3521">
        <path
           style="stroke:none;"
           d="M 3.328125 -3.015625 C 3.390625 -3.265625 3.625 -4.1875 4.3125 -4.1875 C 4.359375 -4.1875 4.609375 -4.1875 4.8125 -4.0625 C 4.53125 -4 4.34375 -3.765625 4.34375 -3.515625 C 4.34375 -3.359375 4.453125 -3.171875 4.71875 -3.171875 C 4.9375 -3.171875 5.25 -3.34375 5.25 -3.75 C 5.25 -4.265625 4.671875 -4.40625 4.328125 -4.40625 C 3.75 -4.40625 3.40625 -3.875 3.28125 -3.65625 C 3.03125 -4.3125 2.5 -4.40625 2.203125 -4.40625 C 1.171875 -4.40625 0.59375 -3.125 0.59375 -2.875 C 0.59375 -2.765625 0.703125 -2.765625 0.71875 -2.765625 C 0.796875 -2.765625 0.828125 -2.796875 0.84375 -2.875 C 1.1875 -3.9375 1.84375 -4.1875 2.1875 -4.1875 C 2.375 -4.1875 2.71875 -4.09375 2.71875 -3.515625 C 2.71875 -3.203125 2.546875 -2.546875 2.1875 -1.140625 C 2.03125 -0.53125 1.671875 -0.109375 1.234375 -0.109375 C 1.171875 -0.109375 0.953125 -0.109375 0.734375 -0.234375 C 0.984375 -0.296875 1.203125 -0.5 1.203125 -0.78125 C 1.203125 -1.046875 0.984375 -1.125 0.84375 -1.125 C 0.53125 -1.125 0.296875 -0.875 0.296875 -0.546875 C 0.296875 -0.09375 0.78125 0.109375 1.21875 0.109375 C 1.890625 0.109375 2.25 -0.59375 2.265625 -0.640625 C 2.390625 -0.28125 2.75 0.109375 3.34375 0.109375 C 4.375 0.109375 4.9375 -1.171875 4.9375 -1.421875 C 4.9375 -1.53125 4.859375 -1.53125 4.828125 -1.53125 C 4.734375 -1.53125 4.71875 -1.484375 4.6875 -1.421875 C 4.359375 -0.34375 3.6875 -0.109375 3.375 -0.109375 C 2.984375 -0.109375 2.828125 -0.421875 2.828125 -0.765625 C 2.828125 -0.984375 2.875 -1.203125 2.984375 -1.640625 Z M 3.328125 -3.015625 "
           id="path6451" />
      </symbol>
      <symbol
         overflow="visible"
         id="symbol1213">
        <path
           style="stroke:none;"
           d=""
           id="path740" />
      </symbol>
      <symbol
         overflow="visible"
         id="symbol9479">
        <path
           style="stroke:none;"
           d="M 1.328125 -0.546875 C 1.265625 -0.3125 1.25 -0.25 0.703125 -0.25 C 0.59375 -0.25 0.5 -0.25 0.5 -0.109375 C 0.5 0 0.578125 0 0.703125 0 L 3.40625 0 C 4.578125 0 5.484375 -0.796875 5.484375 -1.484375 C 5.484375 -1.984375 5.03125 -2.40625 4.28125 -2.484375 C 5.125 -2.640625 5.828125 -3.171875 5.828125 -3.765625 C 5.828125 -4.296875 5.296875 -4.765625 4.390625 -4.765625 L 1.859375 -4.765625 C 1.71875 -4.765625 1.625 -4.765625 1.625 -4.609375 C 1.625 -4.515625 1.71875 -4.515625 1.859375 -4.515625 C 1.859375 -4.515625 2 -4.515625 2.125 -4.5 C 2.265625 -4.484375 2.28125 -4.46875 2.28125 -4.390625 C 2.28125 -4.390625 2.28125 -4.34375 2.25 -4.25 Z M 2.4375 -2.578125 L 2.859375 -4.265625 C 2.921875 -4.484375 2.921875 -4.515625 3.21875 -4.515625 L 4.28125 -4.515625 C 4.984375 -4.515625 5.15625 -4.046875 5.15625 -3.78125 C 5.15625 -3.21875 4.515625 -2.578125 3.578125 -2.578125 Z M 2.109375 -0.25 C 1.890625 -0.25 1.875 -0.265625 1.875 -0.328125 C 1.875 -0.328125 1.875 -0.359375 1.90625 -0.46875 L 2.390625 -2.375 L 3.875 -2.375 C 4.515625 -2.375 4.78125 -1.9375 4.78125 -1.546875 C 4.78125 -0.84375 4.0625 -0.25 3.21875 -0.25 Z M 2.109375 -0.25 "
           id="path3365" />
      </symbol>
    </g>
    <g
       id="g2431">
      <symbol
         overflow="visible"
         id="symbol9693">
        <path
           style="stroke:none;"
           d=""
           id="path2100" />
      </symbol>
      <symbol
         overflow="visible"
         id="symbol3341">
        <path
           style="stroke:none;"
           d="M 3.328125 -3.015625 C 3.390625 -3.265625 3.625 -4.1875 4.3125 -4.1875 C 4.359375 -4.1875 4.609375 -4.1875 4.8125 -4.0625 C 4.53125 -4 4.34375 -3.765625 4.34375 -3.515625 C 4.34375 -3.359375 4.453125 -3.171875 4.71875 -3.171875 C 4.9375 -3.171875 5.25 -3.34375 5.25 -3.75 C 5.25 -4.265625 4.671875 -4.40625 4.328125 -4.40625 C 3.75 -4.40625 3.40625 -3.875 3.28125 -3.65625 C 3.03125 -4.3125 2.5 -4.40625 2.203125 -4.40625 C 1.171875 -4.40625 0.59375 -3.125 0.59375 -2.875 C 0.59375 -2.765625 0.703125 -2.765625 0.71875 -2.765625 C 0.796875 -2.765625 0.828125 -2.796875 0.84375 -2.875 C 1.1875 -3.9375 1.84375 -4.1875 2.1875 -4.1875 C 2.375 -4.1875 2.71875 -4.09375 2.71875 -3.515625 C 2.71875 -3.203125 2.546875 -2.546875 2.1875 -1.140625 C 2.03125 -0.53125 1.671875 -0.109375 1.234375 -0.109375 C 1.171875 -0.109375 0.953125 -0.109375 0.734375 -0.234375 C 0.984375 -0.296875 1.203125 -0.5 1.203125 -0.78125 C 1.203125 -1.046875 0.984375 -1.125 0.84375 -1.125 C 0.53125 -1.125 0.296875 -0.875 0.296875 -0.546875 C 0.296875 -0.09375 0.78125 0.109375 1.21875 0.109375 C 1.890625 0.109375 2.25 -0.59375 2.265625 -0.640625 C 2.390625 -0.28125 2.75 0.109375 3.34375 0.109375 C 4.375 0.109375 4.9375 -1.171875 4.9375 -1.421875 C 4.9375 -1.53125 4.859375 -1.53125 4.828125 -1.53125 C 4.734375 -1.53125 4.71875 -1.484375 4.6875 -1.421875 C 4.359375 -0.34375 3.6875 -0.109375 3.375 -0.109375 C 2.984375 -0.109375 2.828125 -0.421875 2.828125 -0.765625 C 2.828125 -0.984375 2.875 -1.203125 2.984375 -1.640625 Z M 3.328125 -3.015625 "
           id="path7024" />
      </symbol>
      <symbol
         overflow="visible"
         id="symbol9826">
        <path
           style="stroke:none;"
           d=""
           id="path969" />
      </symbol>
      <symbol
         overflow="visible"
         id="symbol6074">
        <path
           style="stroke:none;"
           d="M 1.328125 -0.546875 C 1.265625 -0.3125 1.25 -0.25 0.703125 -0.25 C 0.59375 -0.25 0.5 -0.25 0.5 -0.109375 C 0.5 0 0.578125 0 0.703125 0 L 3.40625 0 C 4.578125 0 5.484375 -0.796875 5.484375 -1.484375 C 5.484375 -1.984375 5.03125 -2.40625 4.28125 -2.484375 C 5.125 -2.640625 5.828125 -3.171875 5.828125 -3.765625 C 5.828125 -4.296875 5.296875 -4.765625 4.390625 -4.765625 L 1.859375 -4.765625 C 1.71875 -4.765625 1.625 -4.765625 1.625 -4.609375 C 1.625 -4.515625 1.71875 -4.515625 1.859375 -4.515625 C 1.859375 -4.515625 2 -4.515625 2.125 -4.5 C 2.265625 -4.484375 2.28125 -4.46875 2.28125 -4.390625 C 2.28125 -4.390625 2.28125 -4.34375 2.25 -4.25 Z M 2.4375 -2.578125 L 2.859375 -4.265625 C 2.921875 -4.484375 2.921875 -4.515625 3.21875 -4.515625 L 4.28125 -4.515625 C 4.984375 -4.515625 5.15625 -4.046875 5.15625 -3.78125 C 5.15625 -3.21875 4.515625 -2.578125 3.578125 -2.578125 Z M 2.109375 -0.25 C 1.890625 -0.25 1.875 -0.265625 1.875 -0.328125 C 1.875 -0.328125 1.875 -0.359375 1.90625 -0.46875 L 2.390625 -2.375 L 3.875 -2.375 C 4.515625 -2.375 4.78125 -1.9375 4.78125 -1.546875 C 4.78125 -0.84375 4.0625 -0.25 3.21875 -0.25 Z M 2.109375 -0.25 "
           id="path16" />
      </symbol>
    </g>
    <g
       id="g5524">
      <symbol
         overflow="visible"
         id="symbol4508">
        <path
           style="stroke:none;"
           d=""
           id="path1104" />
      </symbol>
      <symbol
         overflow="visible"
         id="symbol7696">
        <path
           style="stroke:none;"
           d="M 4.84375 -3.796875 C 4.890625 -3.9375 4.890625 -3.953125 4.890625 -4.03125 C 4.890625 -4.203125 4.75 -4.296875 4.59375 -4.296875 C 4.5 -4.296875 4.34375 -4.234375 4.25 -4.09375 C 4.234375 -4.03125 4.140625 -3.734375 4.109375 -3.546875 C 4.03125 -3.296875 3.96875 -3.015625 3.90625 -2.75 L 3.453125 -0.953125 C 3.421875 -0.8125 2.984375 -0.109375 2.328125 -0.109375 C 1.828125 -0.109375 1.71875 -0.546875 1.71875 -0.921875 C 1.71875 -1.375 1.890625 -2 2.21875 -2.875 C 2.375 -3.28125 2.421875 -3.390625 2.421875 -3.59375 C 2.421875 -4.03125 2.109375 -4.40625 1.609375 -4.40625 C 0.65625 -4.40625 0.296875 -2.953125 0.296875 -2.875 C 0.296875 -2.765625 0.390625 -2.765625 0.40625 -2.765625 C 0.515625 -2.765625 0.515625 -2.796875 0.5625 -2.953125 C 0.84375 -3.890625 1.234375 -4.1875 1.578125 -4.1875 C 1.65625 -4.1875 1.828125 -4.1875 1.828125 -3.875 C 1.828125 -3.625 1.71875 -3.359375 1.65625 -3.171875 C 1.25 -2.109375 1.078125 -1.546875 1.078125 -1.078125 C 1.078125 -0.1875 1.703125 0.109375 2.296875 0.109375 C 2.6875 0.109375 3.015625 -0.0625 3.296875 -0.34375 C 3.171875 0.171875 3.046875 0.671875 2.65625 1.203125 C 2.390625 1.53125 2.015625 1.828125 1.5625 1.828125 C 1.421875 1.828125 0.96875 1.796875 0.796875 1.40625 C 0.953125 1.40625 1.09375 1.40625 1.21875 1.28125 C 1.328125 1.203125 1.421875 1.0625 1.421875 0.875 C 1.421875 0.5625 1.15625 0.53125 1.0625 0.53125 C 0.828125 0.53125 0.5 0.6875 0.5 1.171875 C 0.5 1.671875 0.9375 2.046875 1.5625 2.046875 C 2.578125 2.046875 3.609375 1.140625 3.890625 0.015625 Z M 4.84375 -3.796875 "
           id="path2916" />
      </symbol>
      <symbol
         overflow="visible"
         id="symbol2573">
        <path
           style="stroke:none;"
           d=""
           id="path5494" />
      </symbol>
      <symbol
         overflow="visible"
         id="symbol8484">
        <path
           style="stroke:none;"
           d="M 1.328125 -0.546875 C 1.265625 -0.3125 1.25 -0.25 0.703125 -0.25 C 0.59375 -0.25 0.5 -0.25 0.5 -0.109375 C 0.5 0 0.578125 0 0.703125 0 L 3.40625 0 C 4.578125 0 5.484375 -0.796875 5.484375 -1.484375 C 5.484375 -1.984375 5.03125 -2.40625 4.28125 -2.484375 C 5.125 -2.640625 5.828125 -3.171875 5.828125 -3.765625 C 5.828125 -4.296875 5.296875 -4.765625 4.390625 -4.765625 L 1.859375 -4.765625 C 1.71875 -4.765625 1.625 -4.765625 1.625 -4.609375 C 1.625 -4.515625 1.71875 -4.515625 1.859375 -4.515625 C 1.859375 -4.515625 2 -4.515625 2.125 -4.5 C 2.265625 -4.484375 2.28125 -4.46875 2.28125 -4.390625 C 2.28125 -4.390625 2.28125 -4.34375 2.25 -4.25 Z M 2.4375 -2.578125 L 2.859375 -4.265625 C 2.921875 -4.484375 2.921875 -4.515625 3.21875 -4.515625 L 4.28125 -4.515625 C 4.984375 -4.515625 5.15625 -4.046875 5.15625 -3.78125 C 5.15625 -3.21875 4.515625 -2.578125 3.578125 -2.578125 Z M 2.109375 -0.25 C 1.890625 -0.25 1.875 -0.265625 1.875 -0.328125 C 1.875 -0.328125 1.875 -0.359375 1.90625 -0.46875 L 2.390625 -2.375 L 3.875 -2.375 C 4.515625 -2.375 4.78125 -1.9375 4.78125 -1.546875 C 4.78125 -0.84375 4.0625 -0.25 3.21875 -0.25 Z M 2.109375 -0.25 "
           id="path3933" />
      </symbol>
    </g>
    <g
       id="g4976">
      <symbol
         overflow="visible"
         id="symbol3296">
        <path
           style="stroke:none;"
           d=""
           id="path4799" />
      </symbol>
      <symbol
         overflow="visible"
         id="symbol9436">
        <path
           style="stroke:none;"
           d="M 4.84375 -3.796875 C 4.890625 -3.9375 4.890625 -3.953125 4.890625 -4.03125 C 4.890625 -4.203125 4.75 -4.296875 4.59375 -4.296875 C 4.5 -4.296875 4.34375 -4.234375 4.25 -4.09375 C 4.234375 -4.03125 4.140625 -3.734375 4.109375 -3.546875 C 4.03125 -3.296875 3.96875 -3.015625 3.90625 -2.75 L 3.453125 -0.953125 C 3.421875 -0.8125 2.984375 -0.109375 2.328125 -0.109375 C 1.828125 -0.109375 1.71875 -0.546875 1.71875 -0.921875 C 1.71875 -1.375 1.890625 -2 2.21875 -2.875 C 2.375 -3.28125 2.421875 -3.390625 2.421875 -3.59375 C 2.421875 -4.03125 2.109375 -4.40625 1.609375 -4.40625 C 0.65625 -4.40625 0.296875 -2.953125 0.296875 -2.875 C 0.296875 -2.765625 0.390625 -2.765625 0.40625 -2.765625 C 0.515625 -2.765625 0.515625 -2.796875 0.5625 -2.953125 C 0.84375 -3.890625 1.234375 -4.1875 1.578125 -4.1875 C 1.65625 -4.1875 1.828125 -4.1875 1.828125 -3.875 C 1.828125 -3.625 1.71875 -3.359375 1.65625 -3.171875 C 1.25 -2.109375 1.078125 -1.546875 1.078125 -1.078125 C 1.078125 -0.1875 1.703125 0.109375 2.296875 0.109375 C 2.6875 0.109375 3.015625 -0.0625 3.296875 -0.34375 C 3.171875 0.171875 3.046875 0.671875 2.65625 1.203125 C 2.390625 1.53125 2.015625 1.828125 1.5625 1.828125 C 1.421875 1.828125 0.96875 1.796875 0.796875 1.40625 C 0.953125 1.40625 1.09375 1.40625 1.21875 1.28125 C 1.328125 1.203125 1.421875 1.0625 1.421875 0.875 C 1.421875 0.5625 1.15625 0.53125 1.0625 0.53125 C 0.828125 0.53125 0.5 0.6875 0.5 1.171875 C 0.5 1.671875 0.9375 2.046875 1.5625 2.046875 C 2.578125 2.046875 3.609375 1.140625 3.890625 0.015625 Z M 4.84375 -3.796875 "
           id="path4867" />
      </symbol>
      <symbol
         overflow="visible"
         id="symbol1609">
        <path
           style="stroke:none;"
           d=""
           id="path6917" />
      </symbol>
      <symbol
         overflow="visible"
         id="symbol9391">
        <path
           style="stroke:none;"
           d="M 1.328125 -0.546875 C 1.265625 -0.3125 1.25 -0.25 0.703125 -0.25 C 0.59375 -0.25 0.5 -0.25 0.5 -0.109375 C 0.5 0 0.578125 0 0.703125 0 L 3.40625 0 C 4.578125 0 5.484375 -0.796875 5.484375 -1.484375 C 5.484375 -1.984375 5.03125 -2.40625 4.28125 -2.484375 C 5.125 -2.640625 5.828125 -3.171875 5.828125 -3.765625 C 5.828125 -4.296875 5.296875 -4.765625 4.390625 -4.765625 L 1.859375 -4.765625 C 1.71875 -4.765625 1.625 -4.765625 1.625 -4.609375 C 1.625 -4.515625 1.71875 -4.515625 1.859375 -4.515625 C 1.859375 -4.515625 2 -4.515625 2.125 -4.5 C 2.265625 -4.484375 2.28125 -4.46875 2.28125 -4.390625 C 2.28125 -4.390625 2.28125 -4.34375 2.25 -4.25 Z M 2.4375 -2.578125 L 2.859375 -4.265625 C 2.921875 -4.484375 2.921875 -4.515625 3.21875 -4.515625 L 4.28125 -4.515625 C 4.984375 -4.515625 5.15625 -4.046875 5.15625 -3.78125 C 5.15625 -3.21875 4.515625 -2.578125 3.578125 -2.578125 Z M 2.109375 -0.25 C 1.890625 -0.25 1.875 -0.265625 1.875 -0.328125 C 1.875 -0.328125 1.875 -0.359375 1.90625 -0.46875 L 2.390625 -2.375 L 3.875 -2.375 C 4.515625 -2.375 4.78125 -1.9375 4.78125 -1.546875 C 4.78125 -0.84375 4.0625 -0.25 3.21875 -0.25 Z M 2.109375 -0.25 "
           id="path4294" />
      </symbol>
    </g>
    <g
       id="g4233">
      <symbol
         overflow="visible"
         id="symbol9599">
        <path
           style="stroke:none;"
           d=""
           id="path7803" />
      </symbol>
      <symbol
         overflow="visible"
         id="symbol3844">
        <path
           style="stroke:none;"
           d="M 4.84375 -3.796875 C 4.890625 -3.9375 4.890625 -3.953125 4.890625 -4.03125 C 4.890625 -4.203125 4.75 -4.296875 4.59375 -4.296875 C 4.5 -4.296875 4.34375 -4.234375 4.25 -4.09375 C 4.234375 -4.03125 4.140625 -3.734375 4.109375 -3.546875 C 4.03125 -3.296875 3.96875 -3.015625 3.90625 -2.75 L 3.453125 -0.953125 C 3.421875 -0.8125 2.984375 -0.109375 2.328125 -0.109375 C 1.828125 -0.109375 1.71875 -0.546875 1.71875 -0.921875 C 1.71875 -1.375 1.890625 -2 2.21875 -2.875 C 2.375 -3.28125 2.421875 -3.390625 2.421875 -3.59375 C 2.421875 -4.03125 2.109375 -4.40625 1.609375 -4.40625 C 0.65625 -4.40625 0.296875 -2.953125 0.296875 -2.875 C 0.296875 -2.765625 0.390625 -2.765625 0.40625 -2.765625 C 0.515625 -2.765625 0.515625 -2.796875 0.5625 -2.953125 C 0.84375 -3.890625 1.234375 -4.1875 1.578125 -4.1875 C 1.65625 -4.1875 1.828125 -4.1875 1.828125 -3.875 C 1.828125 -3.625 1.71875 -3.359375 1.65625 -3.171875 C 1.25 -2.109375 1.078125 -1.546875 1.078125 -1.078125 C 1.078125 -0.1875 1.703125 0.109375 2.296875 0.109375 C 2.6875 0.109375 3.015625 -0.0625 3.296875 -0.34375 C 3.171875 0.171875 3.046875 0.671875 2.65625 1.203125 C 2.390625 1.53125 2.015625 1.828125 1.5625 1.828125 C 1.421875 1.828125 0.96875 1.796875 0.796875 1.40625 C 0.953125 1.40625 1.09375 1.40625 1.21875 1.28125 C 1.328125 1.203125 1.421875 1.0625 1.421875 0.875 C 1.421875 0.5625 1.15625 0.53125 1.0625 0.53125 C 0.828125 0.53125 0.5 0.6875 0.5 1.171875 C 0.5 1.671875 0.9375 2.046875 1.5625 2.046875 C 2.578125 2.046875 3.609375 1.140625 3.890625 0.015625 Z M 4.84375 -3.796875 "
           id="path3028" />
      </symbol>
      <symbol
         overflow="visible"
         id="symbol6639">
        <path
           style="stroke:none;"
           d=""
           id="path5060" />
      </symbol>
      <symbol
         overflow="visible"
         id="symbol9126">
        <path
           style="stroke:none;"
           d="M 1.4375 -0.84375 C 1.1875 -0.453125 0.96875 -0.28125 0.5625 -0.25 C 0.484375 -0.25 0.390625 -0.25 0.390625 -0.109375 C 0.390625 -0.03125 0.453125 0 0.5 0 C 0.671875 0 0.90625 -0.03125 1.09375 -0.03125 C 1.3125 -0.03125 1.609375 0 1.8125 0 C 1.84375 0 1.953125 0 1.953125 -0.15625 C 1.953125 -0.25 1.859375 -0.25 1.828125 -0.25 C 1.78125 -0.265625 1.53125 -0.265625 1.53125 -0.453125 C 1.53125 -0.546875 1.59375 -0.65625 1.625 -0.71875 L 2.1875 -1.59375 L 4.1875 -1.59375 L 4.34375 -0.4375 C 4.328125 -0.359375 4.28125 -0.25 3.875 -0.25 C 3.78125 -0.25 3.6875 -0.25 3.6875 -0.09375 C 3.6875 -0.0625 3.703125 0 3.796875 0 C 4 0 4.5 -0.03125 4.703125 -0.03125 C 4.828125 -0.03125 4.984375 -0.015625 5.109375 -0.015625 C 5.234375 -0.015625 5.375 0 5.5 0 C 5.59375 0 5.640625 -0.0625 5.640625 -0.140625 C 5.640625 -0.25 5.5625 -0.25 5.453125 -0.25 C 5.046875 -0.25 5.03125 -0.3125 5.015625 -0.46875 L 4.390625 -4.78125 C 4.375 -4.921875 4.359375 -4.96875 4.234375 -4.96875 C 4.09375 -4.96875 4.0625 -4.90625 4 -4.8125 Z M 2.359375 -1.84375 L 3.8125 -4.125 L 4.140625 -1.84375 Z M 2.359375 -1.84375 "
           id="path9353" />
      </symbol>
    </g>
    <g
       id="g9953">
      <symbol
         overflow="visible"
         id="symbol8391">
        <path
           style="stroke:none;"
           d=""
           id="path8960" />
      </symbol>
      <symbol
         overflow="visible"
         id="symbol4917">
        <path
           style="stroke:none;"
           d="M 1.78125 -1.140625 C 1.390625 -0.484375 1 -0.34375 0.5625 -0.3125 C 0.4375 -0.296875 0.34375 -0.296875 0.34375 -0.109375 C 0.34375 -0.046875 0.40625 0 0.484375 0 C 0.75 0 1.0625 -0.03125 1.328125 -0.03125 C 1.671875 -0.03125 2.015625 0 2.328125 0 C 2.390625 0 2.515625 0 2.515625 -0.1875 C 2.515625 -0.296875 2.4375 -0.3125 2.359375 -0.3125 C 2.140625 -0.328125 1.890625 -0.40625 1.890625 -0.65625 C 1.890625 -0.78125 1.953125 -0.890625 2.03125 -1.03125 L 2.796875 -2.296875 L 5.296875 -2.296875 C 5.3125 -2.09375 5.453125 -0.734375 5.453125 -0.640625 C 5.453125 -0.34375 4.9375 -0.3125 4.734375 -0.3125 C 4.59375 -0.3125 4.5 -0.3125 4.5 -0.109375 C 4.5 0 4.609375 0 4.640625 0 C 5.046875 0 5.46875 -0.03125 5.875 -0.03125 C 6.125 -0.03125 6.765625 0 7.015625 0 C 7.0625 0 7.1875 0 7.1875 -0.203125 C 7.1875 -0.3125 7.09375 -0.3125 6.953125 -0.3125 C 6.34375 -0.3125 6.34375 -0.375 6.3125 -0.671875 L 5.703125 -6.890625 C 5.6875 -7.09375 5.6875 -7.140625 5.515625 -7.140625 C 5.359375 -7.140625 5.3125 -7.0625 5.25 -6.96875 Z M 2.984375 -2.609375 L 4.9375 -5.90625 L 5.265625 -2.609375 Z M 2.984375 -2.609375 "
           id="path3703" />
      </symbol>
      <symbol
         overflow="visible"
         id="symbol289">
        <path
           style="stroke:none;"
           d="M 1.59375 -0.78125 C 1.5 -0.390625 1.46875 -0.3125 0.6875 -0.3125 C 0.515625 -0.3125 0.421875 -0.3125 0.421875 -0.109375 C 0.421875 0 0.515625 0 0.6875 0 L 4.25 0 C 5.828125 0 7 -1.171875 7 -2.15625 C 7 -2.875 6.421875 -3.453125 5.453125 -3.5625 C 6.484375 -3.75 7.53125 -4.484375 7.53125 -5.4375 C 7.53125 -6.171875 6.875 -6.8125 5.6875 -6.8125 L 2.328125 -6.8125 C 2.140625 -6.8125 2.046875 -6.8125 2.046875 -6.609375 C 2.046875 -6.5 2.140625 -6.5 2.328125 -6.5 C 2.34375 -6.5 2.53125 -6.5 2.703125 -6.484375 C 2.875 -6.453125 2.96875 -6.453125 2.96875 -6.3125 C 2.96875 -6.28125 2.953125 -6.25 2.9375 -6.125 Z M 3.09375 -3.65625 L 3.71875 -6.125 C 3.8125 -6.46875 3.828125 -6.5 4.25 -6.5 L 5.546875 -6.5 C 6.421875 -6.5 6.625 -5.90625 6.625 -5.46875 C 6.625 -4.59375 5.765625 -3.65625 4.5625 -3.65625 Z M 2.65625 -0.3125 C 2.515625 -0.3125 2.5 -0.3125 2.4375 -0.3125 C 2.328125 -0.328125 2.296875 -0.34375 2.296875 -0.421875 C 2.296875 -0.453125 2.296875 -0.46875 2.359375 -0.640625 L 3.046875 -3.421875 L 4.921875 -3.421875 C 5.875 -3.421875 6.078125 -2.6875 6.078125 -2.265625 C 6.078125 -1.28125 5.1875 -0.3125 4 -0.3125 Z M 2.65625 -0.3125 "
           id="path9342" />
      </symbol>
      <symbol
         overflow="visible"
         id="symbol3565">
        <path
           style="stroke:none;"
           d="M 3.328125 -3.015625 C 3.390625 -3.265625 3.625 -4.1875 4.3125 -4.1875 C 4.359375 -4.1875 4.609375 -4.1875 4.8125 -4.0625 C 4.53125 -4 4.34375 -3.765625 4.34375 -3.515625 C 4.34375 -3.359375 4.453125 -3.171875 4.71875 -3.171875 C 4.9375 -3.171875 5.25 -3.34375 5.25 -3.75 C 5.25 -4.265625 4.671875 -4.40625 4.328125 -4.40625 C 3.75 -4.40625 3.40625 -3.875 3.28125 -3.65625 C 3.03125 -4.3125 2.5 -4.40625 2.203125 -4.40625 C 1.171875 -4.40625 0.59375 -3.125 0.59375 -2.875 C 0.59375 -2.765625 0.703125 -2.765625 0.71875 -2.765625 C 0.796875 -2.765625 0.828125 -2.796875 0.84375 -2.875 C 1.1875 -3.9375 1.84375 -4.1875 2.1875 -4.1875 C 2.375 -4.1875 2.71875 -4.09375 2.71875 -3.515625 C 2.71875 -3.203125 2.546875 -2.546875 2.1875 -1.140625 C 2.03125 -0.53125 1.671875 -0.109375 1.234375 -0.109375 C 1.171875 -0.109375 0.953125 -0.109375 0.734375 -0.234375 C 0.984375 -0.296875 1.203125 -0.5 1.203125 -0.78125 C 1.203125 -1.046875 0.984375 -1.125 0.84375 -1.125 C 0.53125 -1.125 0.296875 -0.875 0.296875 -0.546875 C 0.296875 -0.09375 0.78125 0.109375 1.21875 0.109375 C 1.890625 0.109375 2.25 -0.59375 2.265625 -0.640625 C 2.390625 -0.28125 2.75 0.109375 3.34375 0.109375 C 4.375 0.109375 4.9375 -1.171875 4.9375 -1.421875 C 4.9375 -1.53125 4.859375 -1.53125 4.828125 -1.53125 C 4.734375 -1.53125 4.71875 -1.484375 4.6875 -1.421875 C 4.359375 -0.34375 3.6875 -0.109375 3.375 -0.109375 C 2.984375 -0.109375 2.828125 -0.421875 2.828125 -0.765625 C 2.828125 -0.984375 2.875 -1.203125 2.984375 -1.640625 Z M 3.328125 -3.015625 "
           id="path6592" />
      </symbol>
      <symbol
         overflow="visible"
         id="symbol5807">
        <path
           style="stroke:none;"
           d="M 4.84375 -3.796875 C 4.890625 -3.9375 4.890625 -3.953125 4.890625 -4.03125 C 4.890625 -4.203125 4.75 -4.296875 4.59375 -4.296875 C 4.5 -4.296875 4.34375 -4.234375 4.25 -4.09375 C 4.234375 -4.03125 4.140625 -3.734375 4.109375 -3.546875 C 4.03125 -3.296875 3.96875 -3.015625 3.90625 -2.75 L 3.453125 -0.953125 C 3.421875 -0.8125 2.984375 -0.109375 2.328125 -0.109375 C 1.828125 -0.109375 1.71875 -0.546875 1.71875 -0.921875 C 1.71875 -1.375 1.890625 -2 2.21875 -2.875 C 2.375 -3.28125 2.421875 -3.390625 2.421875 -3.59375 C 2.421875 -4.03125 2.109375 -4.40625 1.609375 -4.40625 C 0.65625 -4.40625 0.296875 -2.953125 0.296875 -2.875 C 0.296875 -2.765625 0.390625 -2.765625 0.40625 -2.765625 C 0.515625 -2.765625 0.515625 -2.796875 0.5625 -2.953125 C 0.84375 -3.890625 1.234375 -4.1875 1.578125 -4.1875 C 1.65625 -4.1875 1.828125 -4.1875 1.828125 -3.875 C 1.828125 -3.625 1.71875 -3.359375 1.65625 -3.171875 C 1.25 -2.109375 1.078125 -1.546875 1.078125 -1.078125 C 1.078125 -0.1875 1.703125 0.109375 2.296875 0.109375 C 2.6875 0.109375 3.015625 -0.0625 3.296875 -0.34375 C 3.171875 0.171875 3.046875 0.671875 2.65625 1.203125 C 2.390625 1.53125 2.015625 1.828125 1.5625 1.828125 C 1.421875 1.828125 0.96875 1.796875 0.796875 1.40625 C 0.953125 1.40625 1.09375 1.40625 1.21875 1.28125 C 1.328125 1.203125 1.421875 1.0625 1.421875 0.875 C 1.421875 0.5625 1.15625 0.53125 1.0625 0.53125 C 0.828125 0.53125 0.5 0.6875 0.5 1.171875 C 0.5 1.671875 0.9375 2.046875 1.5625 2.046875 C 2.578125 2.046875 3.609375 1.140625 3.890625 0.015625 Z M 4.84375 -3.796875 "
           id="path8772" />
      </symbol>
      <symbol
         overflow="visible"
         id="symbol9177">
        <path
           style="stroke:none;"
           d=""
           id="path6760" />
      </symbol>
      <symbol
         overflow="visible"
         id="symbol4092">
        <path
           style="stroke:none;"
           d="M 6.84375 -3.265625 C 7 -3.265625 7.1875 -3.265625 7.1875 -3.453125 C 7.1875 -3.65625 7 -3.65625 6.859375 -3.65625 L 0.890625 -3.65625 C 0.75 -3.65625 0.5625 -3.65625 0.5625 -3.453125 C 0.5625 -3.265625 0.75 -3.265625 0.890625 -3.265625 Z M 6.859375 -1.328125 C 7 -1.328125 7.1875 -1.328125 7.1875 -1.53125 C 7.1875 -1.71875 7 -1.71875 6.84375 -1.71875 L 0.890625 -1.71875 C 0.75 -1.71875 0.5625 -1.71875 0.5625 -1.53125 C 0.5625 -1.328125 0.75 -1.328125 0.890625 -1.328125 Z M 6.859375 -1.328125 "
           id="path258" />
      </symbol>
      <symbol
         overflow="visible"
         id="symbol2135">
        <path
           style="stroke:none;"
           d="M 3.296875 2.390625 C 3.296875 2.359375 3.296875 2.34375 3.125 2.171875 C 1.890625 0.921875 1.5625 -0.96875 1.5625 -2.5 C 1.5625 -4.234375 1.9375 -5.96875 3.171875 -7.203125 C 3.296875 -7.328125 3.296875 -7.34375 3.296875 -7.375 C 3.296875 -7.453125 3.265625 -7.484375 3.203125 -7.484375 C 3.09375 -7.484375 2.203125 -6.796875 1.609375 -5.53125 C 1.109375 -4.4375 0.984375 -3.328125 0.984375 -2.5 C 0.984375 -1.71875 1.09375 -0.515625 1.640625 0.625 C 2.25 1.84375 3.09375 2.5 3.203125 2.5 C 3.265625 2.5 3.296875 2.46875 3.296875 2.390625 Z M 3.296875 2.390625 "
           id="path2206" />
      </symbol>
      <symbol
         overflow="visible"
         id="symbol6438">
        <path
           style="stroke:none;"
           d="M 2.875 -2.5 C 2.875 -3.265625 2.765625 -4.46875 2.21875 -5.609375 C 1.625 -6.828125 0.765625 -7.484375 0.671875 -7.484375 C 0.609375 -7.484375 0.5625 -7.4375 0.5625 -7.375 C 0.5625 -7.34375 0.5625 -7.328125 0.75 -7.140625 C 1.734375 -6.15625 2.296875 -4.578125 2.296875 -2.5 C 2.296875 -0.78125 1.9375 0.96875 0.703125 2.21875 C 0.5625 2.34375 0.5625 2.359375 0.5625 2.390625 C 0.5625 2.453125 0.609375 2.5 0.671875 2.5 C 0.765625 2.5 1.671875 1.8125 2.25 0.546875 C 2.765625 -0.546875 2.875 -1.65625 2.875 -2.5 Z M 2.875 -2.5 "
           id="path3874" />
      </symbol>
      <symbol
         overflow="visible"
         id="symbol3406">
        <path
           style="stroke:none;"
           d="M 4.078125 -2.296875 L 6.859375 -2.296875 C 7 -2.296875 7.1875 -2.296875 7.1875 -2.5 C 7.1875 -2.6875 7 -2.6875 6.859375 -2.6875 L 4.078125 -2.6875 L 4.078125 -5.484375 C 4.078125 -5.625 4.078125 -5.8125 3.875 -5.8125 C 3.671875 -5.8125 3.671875 -5.625 3.671875 -5.484375 L 3.671875 -2.6875 L 0.890625 -2.6875 C 0.75 -2.6875 0.5625 -2.6875 0.5625 -2.5 C 0.5625 -2.296875 0.75 -2.296875 0.890625 -2.296875 L 3.671875 -2.296875 L 3.671875 0.5 C 3.671875 0.640625 3.671875 0.828125 3.875 0.828125 C 4.078125 0.828125 4.078125 0.640625 4.078125 0.5 Z M 4.078125 -2.296875 "
           id="path9710" />
      </symbol>
      <symbol
         overflow="visible"
         id="symbol1338">
        <path
           style="stroke:none;"
           d=""
           id="path3773" />
      </symbol>
      <symbol
         overflow="visible"
         id="symbol8383">
        <path
           style="stroke:none;"
           d="M 4.234375 11.5625 C 4.53125 11.5625 4.546875 11.546875 4.640625 11.359375 L 10.09375 -0.015625 C 10.171875 -0.15625 10.171875 -0.171875 10.171875 -0.203125 C 10.171875 -0.3125 10.09375 -0.40625 9.96875 -0.40625 C 9.84375 -0.40625 9.796875 -0.3125 9.75 -0.203125 L 4.609375 10.53125 L 2.484375 5.578125 L 1.09375 6.65625 L 1.25 6.8125 L 1.953125 6.265625 Z M 4.234375 11.5625 "
           id="path2785" />
      </symbol>
      <symbol
         overflow="visible"
         id="symbol4906">
        <path
           style="stroke:none;"
           d=""
           id="path8625" />
      </symbol>
      <symbol
         overflow="visible"
         id="symbol605">
        <path
           style="stroke:none;"
           d="M 1.328125 -0.546875 C 1.265625 -0.3125 1.25 -0.25 0.703125 -0.25 C 0.59375 -0.25 0.5 -0.25 0.5 -0.109375 C 0.5 0 0.578125 0 0.703125 0 L 3.40625 0 C 4.578125 0 5.484375 -0.796875 5.484375 -1.484375 C 5.484375 -1.984375 5.03125 -2.40625 4.28125 -2.484375 C 5.125 -2.640625 5.828125 -3.171875 5.828125 -3.765625 C 5.828125 -4.296875 5.296875 -4.765625 4.390625 -4.765625 L 1.859375 -4.765625 C 1.71875 -4.765625 1.625 -4.765625 1.625 -4.609375 C 1.625 -4.515625 1.71875 -4.515625 1.859375 -4.515625 C 1.859375 -4.515625 2 -4.515625 2.125 -4.5 C 2.265625 -4.484375 2.28125 -4.46875 2.28125 -4.390625 C 2.28125 -4.390625 2.28125 -4.34375 2.25 -4.25 Z M 2.4375 -2.578125 L 2.859375 -4.265625 C 2.921875 -4.484375 2.921875 -4.515625 3.21875 -4.515625 L 4.28125 -4.515625 C 4.984375 -4.515625 5.15625 -4.046875 5.15625 -3.78125 C 5.15625 -3.21875 4.515625 -2.578125 3.578125 -2.578125 Z M 2.109375 -0.25 C 1.890625 -0.25 1.875 -0.265625 1.875 -0.328125 C 1.875 -0.328125 1.875 -0.359375 1.90625 -0.46875 L 2.390625 -2.375 L 3.875 -2.375 C 4.515625 -2.375 4.78125 -1.9375 4.78125 -1.546875 C 4.78125 -0.84375 4.0625 -0.25 3.21875 -0.25 Z M 2.109375 -0.25 "
           id="path8028" />
      </symbol>
      <symbol
         overflow="visible"
         id="symbol4306">
        <path
           style="stroke:none;"
           d="M 1.4375 -0.84375 C 1.1875 -0.453125 0.96875 -0.28125 0.5625 -0.25 C 0.484375 -0.25 0.390625 -0.25 0.390625 -0.109375 C 0.390625 -0.03125 0.453125 0 0.5 0 C 0.671875 0 0.90625 -0.03125 1.09375 -0.03125 C 1.3125 -0.03125 1.609375 0 1.8125 0 C 1.84375 0 1.953125 0 1.953125 -0.15625 C 1.953125 -0.25 1.859375 -0.25 1.828125 -0.25 C 1.78125 -0.265625 1.53125 -0.265625 1.53125 -0.453125 C 1.53125 -0.546875 1.59375 -0.65625 1.625 -0.71875 L 2.1875 -1.59375 L 4.1875 -1.59375 L 4.34375 -0.4375 C 4.328125 -0.359375 4.28125 -0.25 3.875 -0.25 C 3.78125 -0.25 3.6875 -0.25 3.6875 -0.09375 C 3.6875 -0.0625 3.703125 0 3.796875 0 C 4 0 4.5 -0.03125 4.703125 -0.03125 C 4.828125 -0.03125 4.984375 -0.015625 5.109375 -0.015625 C 5.234375 -0.015625 5.375 0 5.5 0 C 5.59375 0 5.640625 -0.0625 5.640625 -0.140625 C 5.640625 -0.25 5.5625 -0.25 5.453125 -0.25 C 5.046875 -0.25 5.03125 -0.3125 5.015625 -0.46875 L 4.390625 -4.78125 C 4.375 -4.921875 4.359375 -4.96875 4.234375 -4.96875 C 4.09375 -4.96875 4.0625 -4.90625 4 -4.8125 Z M 2.359375 -1.84375 L 3.8125 -4.125 L 4.140625 -1.84375 Z M 2.359375 -1.84375 "
           id="path5691" />
      </symbol>
      <symbol
         overflow="visible"
         id="symbol4499">
        <path
           style="stroke:none;"
           d=""
           id="path871" />
      </symbol>
      <symbol
         overflow="visible"
         id="symbol1211">
        <path
           style="stroke:none;"
           d="M 6.5625 -2.296875 C 6.734375 -2.296875 6.921875 -2.296875 6.921875 -2.5 C 6.921875 -2.6875 6.734375 -2.6875 6.5625 -2.6875 L 1.171875 -2.6875 C 1 -2.6875 0.828125 -2.6875 0.828125 -2.5 C 0.828125 -2.296875 1 -2.296875 1.171875 -2.296875 Z M 6.5625 -2.296875 "
           id="path2513" />
      </symbol>
      <symbol
         overflow="visible"
         id="symbol6092">
        <path
           style="stroke:none;"
           d=""
           id="path8709" />
      </symbol>
      <symbol
         overflow="visible"
         id="symbol767">
        <path
           style="stroke:none;"
           d="M 3.515625 -1.265625 L 3.28125 -1.265625 C 3.265625 -1.109375 3.1875 -0.703125 3.09375 -0.640625 C 3.046875 -0.59375 2.515625 -0.59375 2.40625 -0.59375 L 1.125 -0.59375 C 1.859375 -1.234375 2.109375 -1.4375 2.515625 -1.765625 C 3.03125 -2.171875 3.515625 -2.609375 3.515625 -3.265625 C 3.515625 -4.109375 2.78125 -4.625 1.890625 -4.625 C 1.03125 -4.625 0.4375 -4.015625 0.4375 -3.375 C 0.4375 -3.03125 0.734375 -2.984375 0.8125 -2.984375 C 0.96875 -2.984375 1.171875 -3.109375 1.171875 -3.359375 C 1.171875 -3.484375 1.125 -3.734375 0.765625 -3.734375 C 0.984375 -4.21875 1.453125 -4.375 1.78125 -4.375 C 2.484375 -4.375 2.84375 -3.828125 2.84375 -3.265625 C 2.84375 -2.65625 2.40625 -2.1875 2.1875 -1.9375 L 0.515625 -0.265625 C 0.4375 -0.203125 0.4375 -0.1875 0.4375 0 L 3.3125 0 Z M 3.515625 -1.265625 "
           id="path753" />
      </symbol>
    </g>
    <marker
       style="overflow:visible"
       id="Arrow2Send-7"
       refX="0"
       refY="0"
       orient="auto"
       inkscape:stockid="Arrow2Send"
       inkscape:isstock="true">
      <path
         transform="matrix(-0.3,0,0,-0.3,0.69,0)"
         d="M 8.7185878,4.0337352 -2.2072895,0.01601326 8.7185884,-4.0017078 c -1.7454984,2.3720609 -1.7354408,5.6174519 -6e-7,8.035443 z"
         style="fill:context-stroke;fill-rule:evenodd;stroke:context-stroke;stroke-width:0.625;stroke-linejoin:round"
         id="path894-9" />
    </marker>
  </defs>
  <g
     inkscape:label="Calque 1"
     inkscape:groupmode="layer"
     id="layer1">
    <ellipse
       style="font-variation-settings:normal;opacity:0.564466;fill:#ff8080;fill-opacity:1;stroke:none;stroke-width:0.264583;stroke-linecap:butt;stroke-linejoin:miter;stroke-miterlimit:4;stroke-dasharray:none;stroke-dashoffset:0;stroke-opacity:1;marker-end:url(#Arrow2Send-6);paint-order:markers fill stroke;stop-color:#000000"
       id="path23191-8"
       cx="107.06301"
       cy="66.55175"
       rx="10.504155"
       ry="10.437699"
       inkscape:export-filename="/home/gilles/Dropbox/nsidocs/terminale_nsi/docs/T2_Programmation/2.1_Programmation_Orientee_Objet/data/TP_dist.png"
       inkscape:export-xdpi="120"
       inkscape:export-ydpi="120" />
    <ellipse
       style="font-variation-settings:normal;opacity:0.56446616;fill:#5fbcd3;fill-opacity:1;stroke:none;stroke-width:0.26458299;stroke-linecap:butt;stroke-linejoin:miter;stroke-miterlimit:4;stroke-dasharray:none;stroke-dashoffset:0;stroke-opacity:1;marker-end:url(#Arrow2Send);paint-order:markers fill stroke;stop-color:#000000;stop-opacity:1"
       id="path23191"
       cx="60.899685"
       cy="96.586014"
       rx="10.504155"
       ry="10.437699"
       inkscape:export-filename="/home/gilles/Dropbox/nsidocs/terminale_nsi/docs/T2_Programmation/2.1_Programmation_Orientee_Objet/data/TP_dist.png"
       inkscape:export-xdpi="120"
       inkscape:export-ydpi="120" />
    <path
       style="fill:none;stroke:#000000;stroke-width:0.26458299;stroke-linecap:butt;stroke-linejoin:miter;stroke-opacity:1;stroke-miterlimit:4;stroke-dasharray:0.26458299,0.52916597;stroke-dashoffset:0"
       d="m 107.17225,66.17372 -0.0263,-18.494915"
       id="path8135"
       inkscape:export-filename="/home/gilles/Dropbox/nsidocs/terminale_nsi/docs/T2_Programmation/2.1_Programmation_Orientee_Objet/data/TP_dist.png"
       inkscape:export-xdpi="120"
       inkscape:export-ydpi="120" />
    <path
       style="fill:none;stroke:#000000;stroke-width:0.665;stroke-linecap:round;stroke-linejoin:miter;stroke-miterlimit:4;stroke-dasharray:none;stroke-opacity:1;marker-end:url(#Arrow2Send)"
       d="m 31.75,47.624999 124.6774,0.102923"
       id="path859"
       sodipodi:nodetypes="cc"
       inkscape:export-filename="/home/gilles/Dropbox/nsidocs/terminale_nsi/docs/T2_Programmation/2.1_Programmation_Orientee_Objet/data/TP_dist.png"
       inkscape:export-xdpi="120"
       inkscape:export-ydpi="120" />
    <path
       style="font-variation-settings:normal;opacity:1;vector-effect:none;fill:none;fill-opacity:1;stroke:#000000;stroke-width:0.665;stroke-linecap:round;stroke-linejoin:miter;stroke-miterlimit:4;stroke-dasharray:none;stroke-dashoffset:0;stroke-opacity:1;-inkscape-stroke:none;marker-end:url(#Arrow2Send);stop-color:#000000;stop-opacity:1"
       d="M 31.75,47.624999 31.472227,126.43751"
       id="path2348"
       sodipodi:nodetypes="cc"
       inkscape:export-filename="/home/gilles/Dropbox/nsidocs/terminale_nsi/docs/T2_Programmation/2.1_Programmation_Orientee_Objet/data/TP_dist.png"
       inkscape:export-xdpi="120"
       inkscape:export-ydpi="120" />
    <path
       style="fill:none;stroke:#0000d6;stroke-width:1.265;stroke-linecap:round;stroke-linejoin:miter;stroke-opacity:1;stroke-miterlimit:4;stroke-dasharray:none"
       d="m 60.85461,96.581639 46.2474,-30.459077"
       id="path3251"
       inkscape:export-filename="/home/gilles/Dropbox/nsidocs/terminale_nsi/docs/T2_Programmation/2.1_Programmation_Orientee_Objet/data/TP_dist.png"
       inkscape:export-xdpi="120"
       inkscape:export-ydpi="120" />
    <ellipse
       style="font-variation-settings:normal;opacity:1;vector-effect:none;fill:#280b0b;fill-opacity:1;stroke:none;stroke-width:0.503501;stroke-linecap:butt;stroke-linejoin:miter;stroke-miterlimit:4;stroke-dasharray:none;stroke-dashoffset:0;stroke-opacity:1;-inkscape-stroke:none;paint-order:markers fill stroke;stop-color:#000000;stop-opacity:1"
       id="path2947"
       cx="60.849876"
       cy="96.550514"
       rx="1.1197687"
       ry="1.1249"
       inkscape:export-filename="/home/gilles/Dropbox/nsidocs/terminale_nsi/docs/T2_Programmation/2.1_Programmation_Orientee_Objet/data/TP_dist.png"
       inkscape:export-xdpi="120"
       inkscape:export-ydpi="120" />
    <ellipse
       style="font-variation-settings:normal;vector-effect:none;fill:#280b0b;fill-opacity:1;stroke:none;stroke-width:0.503501;stroke-linecap:butt;stroke-linejoin:miter;stroke-miterlimit:4;stroke-dasharray:none;stroke-dashoffset:0;stroke-opacity:1;-inkscape-stroke:none;paint-order:markers fill stroke;stop-color:#000000"
       id="path2947-6"
       cx="107.04457"
       cy="66.097237"
       rx="1.1197687"
       ry="1.1249"
       inkscape:export-filename="/home/gilles/Dropbox/nsidocs/terminale_nsi/docs/T2_Programmation/2.1_Programmation_Orientee_Objet/data/TP_dist.png"
       inkscape:export-xdpi="120"
       inkscape:export-ydpi="120" />
    <text
       xml:space="preserve"
       style="font-size:5.64444px;line-height:1.25;font-family:Marianne;-inkscape-font-specification:Marianne;letter-spacing:0px;word-spacing:0px;stroke-width:0.264583"
       x="53.775871"
       y="101.71922"
       id="text5106"
       inkscape:export-filename="/home/gilles/Dropbox/nsidocs/terminale_nsi/docs/T2_Programmation/2.1_Programmation_Orientee_Objet/data/TP_dist.png"
       inkscape:export-xdpi="120"
       inkscape:export-ydpi="120"><tspan
         sodipodi:role="line"
         id="tspan5104"
         style="stroke-width:0.264583"
         x="53.775871"
         y="101.71922">A</tspan></text>
    <text
       xml:space="preserve"
       style="font-size:5.64444px;line-height:1.25;font-family:Marianne;-inkscape-font-specification:Marianne;letter-spacing:0px;word-spacing:0px;stroke-width:0.264583"
       x="109.35733"
       y="64.768646"
       id="text6876"
       inkscape:export-filename="/home/gilles/Dropbox/nsidocs/terminale_nsi/docs/T2_Programmation/2.1_Programmation_Orientee_Objet/data/TP_dist.png"
       inkscape:export-xdpi="120"
       inkscape:export-ydpi="120"><tspan
         sodipodi:role="line"
         id="tspan6874"
         style="stroke-width:0.264583"
         x="109.35733"
         y="64.768646">B</tspan></text>
    <path
       style="fill:none;stroke:#000000;stroke-width:0.264583;stroke-linecap:butt;stroke-linejoin:miter;stroke-opacity:1;font-variation-settings:normal;opacity:1;vector-effect:none;fill-opacity:1;stroke-miterlimit:4;stroke-dasharray:0.264583,0.529166;stroke-dashoffset:0;-inkscape-stroke:none;stop-color:#000000;stop-opacity:1"
       d="m 60.858791,96.596826 0.01492,-48.95543"
       id="path8250"
       sodipodi:nodetypes="cc"
       inkscape:export-filename="/home/gilles/Dropbox/nsidocs/terminale_nsi/docs/T2_Programmation/2.1_Programmation_Orientee_Objet/data/TP_dist.png"
       inkscape:export-xdpi="120"
       inkscape:export-ydpi="120" />
    <path
       style="fill:none;stroke:#000000;stroke-width:0.264583;stroke-linecap:butt;stroke-linejoin:miter;stroke-opacity:1;font-variation-settings:normal;opacity:1;vector-effect:none;fill-opacity:1;stroke-miterlimit:4;stroke-dasharray:0.264583,0.529166;stroke-dashoffset:0;-inkscape-stroke:none;stop-color:#000000;stop-opacity:1"
       d="m 60.845572,96.606438 -28.78623,-0.05142"
       id="path8619"
       inkscape:export-filename="/home/gilles/Dropbox/nsidocs/terminale_nsi/docs/T2_Programmation/2.1_Programmation_Orientee_Objet/data/TP_dist.png"
       inkscape:export-xdpi="120"
       inkscape:export-ydpi="120" />
    <path
       style="fill:none;stroke:#000000;stroke-width:0.264583;stroke-linecap:butt;stroke-linejoin:miter;stroke-opacity:1;font-variation-settings:normal;opacity:1;vector-effect:none;fill-opacity:1;stroke-miterlimit:4;stroke-dasharray:0.264583,0.529166;stroke-dashoffset:0;-inkscape-stroke:none;stop-color:#000000;stop-opacity:1"
       d="m 107.46035,66.005214 -75.554461,0.09868"
       id="path8621"
       inkscape:export-filename="/home/gilles/Dropbox/nsidocs/terminale_nsi/docs/T2_Programmation/2.1_Programmation_Orientee_Objet/data/TP_dist.png"
       inkscape:export-xdpi="120"
       inkscape:export-ydpi="120" />
    <g
       inkscape:label=""
       transform="matrix(0.93854735,0,0,0.93854735,-30.856911,-33.175302)"
       id="g24858"
       inkscape:export-filename="/home/gilles/Dropbox/nsidocs/terminale_nsi/docs/T2_Programmation/2.1_Programmation_Orientee_Objet/data/TP_dist.png"
       inkscape:export-xdpi="120"
       inkscape:export-ydpi="120">
      <g
         id="g1958">
        <g
           style="fill:#000000;fill-opacity:1"
           id="g6575">
          <use
             xlink:href="#symbol1704"
             x="91.925003"
             y="81.962997"
             id="use9012"
             width="100%"
             height="100%" />
        </g>
        <g
           style="fill:#000000;fill-opacity:1"
           id="g9107">
          <use
             xlink:href="#symbol9582"
             x="97.619003"
             y="83.457001"
             id="use527"
             width="100%"
             height="100%" />
        </g>
      </g>
    </g>
    <g
       inkscape:label=""
       transform="translate(9.4891111,-38.553345)"
       id="g25644"
       inkscape:export-filename="/home/gilles/Dropbox/nsidocs/terminale_nsi/docs/T2_Programmation/2.1_Programmation_Orientee_Objet/data/TP_dist.png"
       inkscape:export-xdpi="120"
       inkscape:export-ydpi="120">
      <g
         id="g4011">
        <g
           style="fill:#000000;fill-opacity:1"
           id="g5076">
          <use
             xlink:href="#symbol3341"
             x="91.925003"
             y="81.962997"
             id="use3106"
             width="100%"
             height="100%" />
        </g>
        <g
           style="fill:#000000;fill-opacity:1"
           id="g1137">
          <use
             xlink:href="#symbol6074"
             x="97.619003"
             y="83.457001"
             id="use3732"
             width="100%"
             height="100%" />
        </g>
      </g>
    </g>
    <g
       inkscape:label=""
       transform="translate(-73.412824,-14.93727)"
       id="g26366"
       inkscape:export-filename="/home/gilles/Dropbox/nsidocs/terminale_nsi/docs/T2_Programmation/2.1_Programmation_Orientee_Objet/data/TP_dist.png"
       inkscape:export-xdpi="120"
       inkscape:export-ydpi="120">
      <g
         id="g4649">
        <g
           style="fill:#000000;fill-opacity:1"
           id="g8212">
          <use
             xlink:href="#symbol9436"
             x="91.925003"
             y="81.962997"
             id="use2626"
             width="100%"
             height="100%" />
        </g>
        <g
           style="fill:#000000;fill-opacity:1"
           id="g5428">
          <use
             xlink:href="#symbol9391"
             x="96.809998"
             y="83.457001"
             id="use523"
             width="100%"
             height="100%" />
        </g>
      </g>
    </g>
    <g
       inkscape:label=""
       transform="translate(-73.441508,15.18276)"
       id="g26800"
       inkscape:export-filename="/home/gilles/Dropbox/nsidocs/terminale_nsi/docs/T2_Programmation/2.1_Programmation_Orientee_Objet/data/TP_dist.png"
       inkscape:export-xdpi="120"
       inkscape:export-ydpi="120">
      <g
         id="g7430">
        <g
           style="fill:#000000;fill-opacity:1"
           id="g4452">
          <use
             xlink:href="#symbol3844"
             x="91.925003"
             y="81.962997"
             id="use6572"
             width="100%"
             height="100%" />
        </g>
        <g
           style="fill:#000000;fill-opacity:1"
           id="g6415">
          <use
             xlink:href="#symbol9126"
             x="96.809998"
             y="83.457001"
             id="use5173"
             width="100%"
             height="100%" />
        </g>
      </g>
    </g>
    <g
       inkscape:label=""
       transform="matrix(0.72752045,0,0,0.72752045,-20.682625,57.989791)"
       id="g27252"
       inkscape:export-filename="/home/gilles/Dropbox/nsidocs/terminale_nsi/docs/T2_Programmation/2.1_Programmation_Orientee_Objet/data/TP_dist.png"
       inkscape:export-xdpi="120"
       inkscape:export-ydpi="120">
      <g
         id="g1406">
        <g
           style="fill:#000000;fill-opacity:1"
           id="g6921">
          <use
             xlink:href="#symbol4917"
             x="91.925003"
             y="81.962997"
             id="use1357"
             width="100%"
             height="100%" />
          <use
             xlink:href="#symbol289"
             x="99.39695"
             y="81.962997"
             id="use3931"
             width="100%"
             height="100%" />
        </g>
        <g
           style="fill:#000000;fill-opacity:1"
           id="g5638">
          <use
             xlink:href="#symbol4092"
             x="110.221"
             y="81.962997"
             id="use23"
             width="100%"
             height="100%" />
        </g>
        <g
           style="fill:#000000;fill-opacity:1"
           id="g3237">
          <use
             xlink:href="#symbol8383"
             x="120.737"
             y="73.445"
             id="use7938"
             width="100%"
             height="100%" />
        </g>
        <path
           style="fill:none;stroke:#000000;stroke-width:0.398;stroke-linecap:butt;stroke-linejoin:miter;stroke-miterlimit:10;stroke-opacity:1"
           d="M -7.8125e-4,-9.375e-5 H 108.81562"
           transform="matrix(1,0,0,-1,130.7,73.246)"
           id="path9434" />
        <g
           style="fill:#000000;fill-opacity:1"
           id="g2103">
          <use
             xlink:href="#symbol2135"
             x="130.7"
             y="81.962997"
             id="use9736"
             width="100%"
             height="100%" />
        </g>
        <g
           style="fill:#000000;fill-opacity:1"
           id="g4359">
          <use
             xlink:href="#symbol3565"
             x="134.57401"
             y="81.962997"
             id="use2133"
             width="100%"
             height="100%" />
        </g>
        <g
           style="fill:#000000;fill-opacity:1"
           id="g5717">
          <use
             xlink:href="#symbol605"
             x="140.26801"
             y="83.457001"
             id="use9767"
             width="100%"
             height="100%" />
        </g>
        <g
           style="fill:#000000;fill-opacity:1"
           id="g4374">
          <use
             xlink:href="#symbol1211"
             x="149.339"
             y="81.962997"
             id="use2707"
             width="100%"
             height="100%" />
        </g>
        <g
           style="fill:#000000;fill-opacity:1"
           id="g4477">
          <use
             xlink:href="#symbol3565"
             x="159.302"
             y="81.962997"
             id="use8991"
             width="100%"
             height="100%" />
        </g>
        <g
           style="fill:#000000;fill-opacity:1"
           id="g8873">
          <use
             xlink:href="#symbol4306"
             x="164.996"
             y="83.457001"
             id="use6781"
             width="100%"
             height="100%" />
        </g>
        <g
           style="fill:#000000;fill-opacity:1"
           id="g127">
          <use
             xlink:href="#symbol6438"
             x="171.485"
             y="81.962997"
             id="use775"
             width="100%"
             height="100%" />
        </g>
        <g
           style="fill:#000000;fill-opacity:1"
           id="g1889">
          <use
             xlink:href="#symbol767"
             x="175.36"
             y="79.084999"
             id="use1570"
             width="100%"
             height="100%" />
        </g>
        <g
           style="fill:#000000;fill-opacity:1"
           id="g7009">
          <use
             xlink:href="#symbol3406"
             x="182.043"
             y="81.962997"
             id="use5482"
             width="100%"
             height="100%" />
        </g>
        <g
           style="fill:#000000;fill-opacity:1"
           id="g6814">
          <use
             xlink:href="#symbol2135"
             x="192.0036"
             y="81.962997"
             id="use4314"
             width="100%"
             height="100%" />
        </g>
        <g
           style="fill:#000000;fill-opacity:1"
           id="g5204">
          <use
             xlink:href="#symbol5807"
             x="195.88"
             y="81.962997"
             id="use6553"
             width="100%"
             height="100%" />
        </g>
        <g
           style="fill:#000000;fill-opacity:1"
           id="g1438">
          <use
             xlink:href="#symbol605"
             x="200.765"
             y="83.457001"
             id="use2988"
             width="100%"
             height="100%" />
        </g>
        <g
           style="fill:#000000;fill-opacity:1"
           id="g9101">
          <use
             xlink:href="#symbol1211"
             x="209.836"
             y="81.962997"
             id="use2857"
             width="100%"
             height="100%" />
        </g>
        <g
           style="fill:#000000;fill-opacity:1"
           id="g3685">
          <use
             xlink:href="#symbol5807"
             x="219.798"
             y="81.962997"
             id="use3488"
             width="100%"
             height="100%" />
        </g>
        <g
           style="fill:#000000;fill-opacity:1"
           id="g5421">
          <use
             xlink:href="#symbol4306"
             x="224.683"
             y="83.457001"
             id="use9585"
             width="100%"
             height="100%" />
        </g>
        <g
           style="fill:#000000;fill-opacity:1"
           id="g40">
          <use
             xlink:href="#symbol6438"
             x="231.172"
             y="81.962997"
             id="use9375"
             width="100%"
             height="100%" />
        </g>
        <g
           style="fill:#000000;fill-opacity:1"
           id="g1459">
          <use
             xlink:href="#symbol767"
             x="235.047"
             y="79.084999"
             id="use5559"
             width="100%"
             height="100%" />
        </g>
      </g>
    </g>
  </g>
</svg>
